<?xml version="1.0" encoding="UTF-8"?>
<svg id="Capa_2" data-name="Capa 2" xmlns="http://www.w3.org/2000/svg" viewBox="0 0 537.88 180.89">
  <defs>
    <style>
      .cls-1 {
        fill: #1d30db;
      }

      .cls-1, .cls-2 {
        stroke-width: 0px;
      }

      .cls-2 {
        fill: #00cdfc;
      }
    </style>
  </defs>
  <g id="Layer_1" data-name="Layer 1">
    <g>
      <g>
        <path class="cls-2" d="M225.38,105.17c-2.93,0-5.57-.65-7.9-1.96-2.34-1.3-4.18-3.07-5.54-5.3-1.36-2.23-2.04-4.7-2.04-7.42v-57.04c0-4.13,1.47-7.6,4.4-10.43,2.93-2.82,6.63-4.24,11.08-4.24,3.26,0,5.92.68,7.99,2.04,2.06,1.36,3.59,2.91,4.56,4.65.98,1.74,1.47,3.21,1.47,4.4v1.96l-10.43-4.07h11.9c1.41-2.71,3.94-5.16,7.58-7.33,3.64-2.17,7.91-3.26,12.79-3.26,5.76,0,10.92,1.44,15.48,4.32,4.56,2.88,8.15,7.15,10.76,12.79,2.61,5.65,3.91,12.44,3.91,20.37v35.86c0,4.13-1.47,7.61-4.4,10.43-2.93,2.83-6.63,4.24-11.08,4.24-2.93,0-5.57-.65-7.91-1.96-2.34-1.3-4.18-3.07-5.54-5.3-1.36-2.23-2.04-4.7-2.04-7.42v-35.86c0-2.61-.41-4.83-1.22-6.68-.81-1.85-1.96-3.23-3.42-4.16-1.47-.92-3.18-1.39-5.13-1.39s-3.67.46-5.13,1.39c-1.47.92-2.61,2.31-3.42,4.16-.82,1.85-1.22,4.07-1.22,6.68v35.86c0,4.13-1.47,7.61-4.4,10.43-2.93,2.83-6.63,4.24-11.08,4.24Z"/>
        <path class="cls-2" d="M350.22,106.8c-8.26,0-15.54-1.63-21.84-4.89-6.3-3.26-11.16-7.74-14.59-13.45-3.42-5.7-5.13-12.09-5.13-19.15v-14.67c0-7.06,1.71-13.45,5.13-19.15,3.42-5.7,8.28-10.19,14.59-13.45,6.3-3.26,13.58-4.89,21.84-4.89s15.54,1.63,21.84,4.89c6.3,3.26,11.16,7.74,14.59,13.45s5.13,12.09,5.13,19.15v14.67c0,7.06-1.71,13.45-5.13,19.15-3.42,5.7-8.29,10.19-14.59,13.45-6.3,3.26-13.58,4.89-21.84,4.89ZM350.22,81.54c1.96,0,3.72-.51,5.3-1.55,1.57-1.03,2.85-2.47,3.83-4.32.98-1.85,1.47-3.96,1.47-6.36v-14.67c0-2.39-.49-4.51-1.47-6.36-.98-1.85-2.26-3.29-3.83-4.32-1.58-1.03-3.34-1.55-5.3-1.55s-3.72.52-5.3,1.55c-1.58,1.03-2.85,2.47-3.83,4.32-.98,1.85-1.47,3.97-1.47,6.36v14.67c0,2.39.49,4.51,1.47,6.36.98,1.85,2.25,3.29,3.83,4.32,1.57,1.03,3.34,1.55,5.3,1.55Z"/>
        <path class="cls-2" d="M442.46,106.8c-5.11,0-9.24-1.28-12.39-3.83-3.15-2.55-5.54-6.17-7.17-10.84l-17.44-50.85c-1.41-4.24-1.74-8.07-.98-11.49.76-3.42,2.47-6.11,5.13-8.07,2.66-1.96,5.95-2.93,9.86-2.93s7.44,1.28,10.27,3.83c2.82,2.55,4.83,6.17,6.03,10.84l8.31,30.15h1.63l7.33-30.15c1.08-4.34,3.18-7.88,6.27-10.59,3.1-2.71,6.98-4.07,11.65-4.07s8.56,1.36,11.65,4.07c3.1,2.72,5.19,6.25,6.28,10.59l7.33,30.15h1.63l8.31-30.15c1.19-4.67,3.2-8.28,6.03-10.84,2.82-2.55,6.25-3.83,10.27-3.83s7.2,1.01,9.86,3.02c2.66,2.01,4.37,4.75,5.13,8.23.76,3.48.43,7.23-.98,11.25l-17.44,50.85c-1.63,4.67-4.02,8.29-7.17,10.84-3.15,2.55-7.28,3.83-12.39,3.83-5.54,0-10-1.44-13.36-4.32-3.37-2.88-5.71-6.87-7.01-11.98l-7.33-28.52h-1.63l-7.33,28.52c-.87,3.37-2.17,6.25-3.91,8.64-1.74,2.39-3.99,4.27-6.76,5.62-2.77,1.36-6,2.04-9.7,2.04Z"/>
      </g>
      <g>
        <path class="cls-1" d="M222.69,164.6c-1.76,0-3.32-.38-4.7-1.13-1.38-.75-2.46-1.76-3.25-3.04-.79-1.27-1.18-2.66-1.18-4.17,0-1.93.45-3.6,1.34-5,.89-1.4,2.3-2.48,4.22-3.25,1.92-.77,4.36-1.16,7.34-1.16h4.73l-1.24,1.24v-1.07c0-.82-.11-1.55-.32-2.18-.21-.63-.58-1.12-1.1-1.48-.52-.36-1.21-.54-2.07-.54-.61,0-1.13.1-1.56.3-.43.2-.93.56-1.5,1.1-.61.57-1.18.98-1.72,1.21-.54.23-1.18.35-1.93.35-1.33,0-2.37-.37-3.14-1.1-.77-.73-1.16-1.71-1.16-2.93,0-.9.28-1.74.83-2.53.56-.79,1.32-1.5,2.28-2.15,1-.68,2.18-1.19,3.55-1.53,1.36-.34,2.81-.51,4.35-.51,2.79,0,5.23.51,7.31,1.53,2.08,1.02,3.66,2.43,4.76,4.22,1.09,1.79,1.64,3.82,1.64,6.07v12.36c0,1.4-.46,2.55-1.37,3.47-.91.91-2.16,1.37-3.73,1.37-.93,0-1.76-.21-2.47-.62-.72-.41-1.27-.93-1.67-1.56-.39-.63-.59-1.26-.59-1.91v-1.18l1.34,2.31h-1.72c-.79,1.04-1.84,1.88-3.14,2.53s-2.68.97-4.11.97ZM226.18,157.08c.72,0,1.42-.17,2.12-.51.7-.34,1.24-.8,1.64-1.37v-2.42h-3.49c-.79,0-1.43.21-1.94.65-.5.43-.75.93-.75,1.5,0,.68.21,1.21.62,1.59.41.38,1.01.56,1.8.56Z"/>
        <path class="cls-1" d="M261.43,164.6c-2.08,0-3.92-.21-5.54-.65-1.61-.43-2.96-.98-4.03-1.67-.93-.61-1.63-1.28-2.1-2.02-.47-.73-.7-1.44-.7-2.12,0-1.15.39-2.06,1.18-2.74.79-.68,1.74-1.02,2.85-1.02.68,0,1.33.12,1.93.35.61.23,1.29.6,2.04,1.1.82.54,1.56.92,2.2,1.16.64.23,1.36.35,2.15.35.61,0,1.11-.07,1.5-.22.39-.14.69-.34.89-.59.2-.25.29-.52.29-.81,0-.36-.19-.68-.56-.97-.38-.29-.91-.54-1.61-.75-.7-.22-1.44-.43-2.23-.65-2.01-.57-3.69-1.15-5.05-1.72-1.36-.57-2.54-1.44-3.55-2.61-1-1.16-1.5-2.7-1.5-4.59,0-1.72.47-3.3,1.42-4.73.95-1.43,2.36-2.57,4.22-3.41,1.86-.84,4.1-1.26,6.72-1.26,1.79,0,3.41.21,4.86.62,1.45.41,2.7.98,3.74,1.69.93.65,1.66,1.34,2.18,2.1.52.75.78,1.43.78,2.04,0,1.11-.38,2.02-1.13,2.71-.75.7-1.72,1.05-2.9,1.05-.75,0-1.46-.12-2.12-.38-.66-.25-1.39-.66-2.18-1.24-.68-.5-1.25-.85-1.72-1.05-.47-.2-.97-.3-1.5-.3-.39,0-.75.07-1.08.21-.32.14-.58.34-.78.59-.2.25-.3.52-.3.81,0,.36.19.68.56.97.38.29.91.54,1.61.75.7.21,1.44.43,2.23.65,2.01.57,3.69,1.15,5.05,1.72,1.36.57,2.54,1.44,3.55,2.61,1,1.16,1.5,2.7,1.5,4.59,0,1.76-.49,3.34-1.48,4.76-.99,1.42-2.45,2.54-4.38,3.39-1.93.84-4.28,1.26-7.04,1.26Z"/>
        <path class="cls-1" d="M294.27,164.6c-2.08,0-3.92-.21-5.54-.65-1.61-.43-2.96-.98-4.03-1.67-.93-.61-1.63-1.28-2.1-2.02-.47-.73-.7-1.44-.7-2.12,0-1.15.39-2.06,1.18-2.74.79-.68,1.74-1.02,2.85-1.02.68,0,1.33.12,1.93.35.61.23,1.29.6,2.04,1.1.82.54,1.56.92,2.2,1.16.64.23,1.36.35,2.15.35.61,0,1.11-.07,1.5-.22.39-.14.69-.34.89-.59.2-.25.29-.52.29-.81,0-.36-.19-.68-.56-.97-.38-.29-.91-.54-1.61-.75-.7-.22-1.44-.43-2.23-.65-2.01-.57-3.69-1.15-5.05-1.72-1.36-.57-2.54-1.44-3.55-2.61-1-1.16-1.5-2.7-1.5-4.59,0-1.72.47-3.3,1.42-4.73.95-1.43,2.36-2.57,4.22-3.41,1.86-.84,4.1-1.26,6.72-1.26,1.79,0,3.41.21,4.86.62,1.45.41,2.7.98,3.74,1.69.93.65,1.66,1.34,2.18,2.1.52.75.78,1.43.78,2.04,0,1.11-.38,2.02-1.13,2.71-.75.7-1.72,1.05-2.9,1.05-.75,0-1.46-.12-2.12-.38-.66-.25-1.39-.66-2.18-1.24-.68-.5-1.25-.85-1.72-1.05-.47-.2-.97-.3-1.5-.3-.39,0-.75.07-1.08.21-.32.14-.58.34-.78.59-.2.25-.3.52-.3.81,0,.36.19.68.56.97.38.29.91.54,1.61.75.7.21,1.44.43,2.23.65,2.01.57,3.69,1.15,5.05,1.72,1.36.57,2.54,1.44,3.55,2.61,1,1.16,1.5,2.7,1.5,4.59,0,1.76-.49,3.34-1.48,4.76-.99,1.42-2.45,2.54-4.38,3.39-1.93.84-4.28,1.26-7.04,1.26Z"/>
        <path class="cls-1" d="M321.46,132.09c-1.47,0-2.69-.47-3.66-1.4-.97-.93-1.45-2.08-1.45-3.44s.48-2.51,1.45-3.44c.97-.93,2.19-1.4,3.66-1.4s2.69.47,3.65,1.4c.97.93,1.45,2.08,1.45,3.44s-.48,2.51-1.45,3.44c-.97.93-2.19,1.4-3.65,1.4ZM321.46,164.06c-.97,0-1.84-.21-2.61-.64-.77-.43-1.38-1.01-1.83-1.75s-.67-1.55-.67-2.45v-18.81c0-1.36.48-2.51,1.45-3.44.97-.93,2.19-1.4,3.66-1.4.97,0,1.83.21,2.61.65.77.43,1.38,1.01,1.83,1.75.45.73.67,1.55.67,2.45v18.81c0,1.36-.48,2.51-1.45,3.44-.97.93-2.19,1.4-3.65,1.4Z"/>
        <path class="cls-1" d="M348.12,164.6c-2.08,0-3.92-.21-5.54-.65-1.61-.43-2.96-.98-4.03-1.67-.93-.61-1.63-1.28-2.1-2.02-.47-.73-.7-1.44-.7-2.12,0-1.15.39-2.06,1.18-2.74.79-.68,1.74-1.02,2.85-1.02.68,0,1.33.12,1.93.35.61.23,1.29.6,2.04,1.1.82.54,1.56.92,2.2,1.16.64.23,1.36.35,2.15.35.61,0,1.11-.07,1.5-.22.39-.14.69-.34.89-.59.2-.25.29-.52.29-.81,0-.36-.19-.68-.56-.97-.38-.29-.91-.54-1.61-.75-.7-.22-1.44-.43-2.23-.65-2.01-.57-3.69-1.15-5.05-1.72-1.36-.57-2.54-1.44-3.55-2.61-1-1.16-1.5-2.7-1.5-4.59,0-1.72.47-3.3,1.42-4.73.95-1.43,2.36-2.57,4.22-3.41,1.86-.84,4.1-1.26,6.72-1.26,1.79,0,3.41.21,4.86.62,1.45.41,2.7.98,3.74,1.69.93.65,1.66,1.34,2.18,2.1.52.75.78,1.43.78,2.04,0,1.11-.38,2.02-1.13,2.71-.75.7-1.72,1.05-2.9,1.05-.75,0-1.46-.12-2.12-.38-.66-.25-1.39-.66-2.18-1.24-.68-.5-1.25-.85-1.72-1.05-.47-.2-.97-.3-1.5-.3-.39,0-.75.07-1.08.21-.32.14-.58.34-.78.59-.2.25-.3.52-.3.81,0,.36.19.68.56.97.38.29.91.54,1.61.75.7.21,1.44.43,2.23.65,2.01.57,3.69,1.15,5.05,1.72,1.36.57,2.54,1.44,3.55,2.61,1,1.16,1.5,2.7,1.5,4.59,0,1.76-.49,3.34-1.48,4.76-.99,1.42-2.45,2.54-4.38,3.39-1.93.84-4.28,1.26-7.04,1.26Z"/>
        <path class="cls-1" d="M372.78,144.45c-1.29,0-2.4-.38-3.33-1.16-.93-.77-1.4-1.82-1.4-3.14s.47-2.37,1.4-3.14c.93-.77,2.04-1.16,3.33-1.16h13.54c1.33,0,2.42.41,3.28,1.24.86.82,1.29,1.85,1.29,3.06s-.43,2.24-1.29,3.06c-.86.82-1.95,1.24-3.28,1.24h-13.54ZM383.1,163.8c-2.22,0-4.17-.44-5.83-1.32-1.67-.88-2.95-2.11-3.84-3.71-.9-1.59-1.34-3.41-1.34-5.45v-19.08c0-1.36.48-2.51,1.45-3.44.97-.93,2.19-1.4,3.66-1.4.97,0,1.83.21,2.61.65.77.43,1.38,1.01,1.83,1.75.45.73.67,1.55.67,2.45v19.08c0,.68.14,1.16.43,1.45.29.29.77.43,1.45.43h2.69c1.33,0,2.42.41,3.28,1.24.86.82,1.29,1.85,1.29,3.06s-.43,2.24-1.29,3.06c-.86.82-1.95,1.24-3.28,1.24h-3.76Z"/>
        <path class="cls-1" d="M408.41,164.6c-1.76,0-3.32-.38-4.7-1.13-1.38-.75-2.46-1.76-3.25-3.04-.79-1.27-1.18-2.66-1.18-4.17,0-1.93.45-3.6,1.34-5,.89-1.4,2.3-2.48,4.22-3.25,1.92-.77,4.36-1.16,7.34-1.16h4.73l-1.24,1.24v-1.07c0-.82-.11-1.55-.32-2.18-.21-.63-.58-1.12-1.1-1.48-.52-.36-1.21-.54-2.07-.54-.61,0-1.13.1-1.56.3-.43.2-.93.56-1.5,1.1-.61.57-1.18.98-1.72,1.21-.54.23-1.18.35-1.93.35-1.33,0-2.37-.37-3.14-1.1-.77-.73-1.16-1.71-1.16-2.93,0-.9.28-1.74.83-2.53.56-.79,1.32-1.5,2.28-2.15,1-.68,2.18-1.19,3.55-1.53,1.36-.34,2.81-.51,4.35-.51,2.79,0,5.23.51,7.31,1.53,2.08,1.02,3.66,2.43,4.76,4.22,1.09,1.79,1.64,3.82,1.64,6.07v12.36c0,1.4-.46,2.55-1.37,3.47-.91.91-2.16,1.37-3.73,1.37-.93,0-1.76-.21-2.47-.62-.72-.41-1.27-.93-1.67-1.56-.39-.63-.59-1.26-.59-1.91v-1.18l1.34,2.31h-1.72c-.79,1.04-1.84,1.88-3.14,2.53s-2.68.97-4.11.97ZM411.91,157.08c.72,0,1.42-.17,2.12-.51.7-.34,1.24-.8,1.64-1.37v-2.42h-3.49c-.79,0-1.43.21-1.94.65-.5.43-.75.93-.75,1.5,0,.68.21,1.21.62,1.59.41.38,1.01.56,1.8.56Z"/>
        <path class="cls-1" d="M441.52,164.06c-.97,0-1.84-.21-2.61-.64-.77-.43-1.38-1.01-1.83-1.75s-.67-1.55-.67-2.45v-18.81c0-1.36.48-2.51,1.45-3.44.97-.93,2.19-1.4,3.66-1.4,1.07,0,1.95.22,2.63.67.68.45,1.18.96,1.5,1.53.32.57.48,1.06.48,1.45v.65l-3.44-1.34h3.92c.47-.9,1.3-1.7,2.5-2.42,1.2-.72,2.61-1.07,4.22-1.07,1.9,0,3.6.48,5.11,1.42,1.5.95,2.69,2.36,3.55,4.22.86,1.86,1.29,4.1,1.29,6.72v11.82c0,1.36-.48,2.51-1.45,3.44-.97.93-2.19,1.4-3.65,1.4-.97,0-1.84-.21-2.61-.64-.77-.43-1.38-1.01-1.83-1.75-.45-.73-.67-1.55-.67-2.45v-11.82c0-.86-.13-1.59-.4-2.2-.27-.61-.64-1.07-1.13-1.37-.48-.3-1.05-.46-1.69-.46s-1.21.15-1.69.46c-.48.3-.86.76-1.13,1.37-.27.61-.4,1.34-.4,2.2v11.82c0,1.36-.48,2.51-1.45,3.44-.97.93-2.19,1.4-3.65,1.4Z"/>
        <path class="cls-1" d="M486.98,164.6c-2.72,0-5.12-.54-7.2-1.61-2.08-1.07-3.68-2.55-4.81-4.43-1.13-1.88-1.69-3.99-1.69-6.31v-4.84c0-2.33.56-4.43,1.69-6.31,1.13-1.88,2.73-3.36,4.81-4.43,2.08-1.07,4.48-1.61,7.2-1.61,1.47,0,2.88.2,4.25.59,1.36.4,2.56.95,3.6,1.67,1.07.75,1.92,1.58,2.53,2.47.61.9.91,1.83.91,2.79,0,1.25-.43,2.28-1.29,3.09-.86.81-1.95,1.21-3.28,1.21-.79,0-1.46-.14-2.02-.43-.56-.29-1.14-.77-1.75-1.45-.57-.65-1.07-1.07-1.48-1.29-.41-.22-.91-.32-1.48-.32-.64,0-1.23.17-1.75.51-.52.34-.94.82-1.26,1.42-.32.61-.48,1.31-.48,2.1v4.84c0,.79.16,1.49.48,2.1.32.61.74,1.08,1.26,1.42.52.34,1.1.51,1.75.51.57,0,1.1-.12,1.59-.38.48-.25,1.07-.68,1.75-1.29.72-.68,1.37-1.16,1.96-1.42.59-.27,1.24-.4,1.96-.4,1.33,0,2.42.4,3.28,1.21.86.81,1.29,1.84,1.29,3.09,0,.9-.28,1.77-.83,2.63-.56.86-1.32,1.65-2.28,2.36-1.07.79-2.37,1.41-3.9,1.85-1.52.45-3.13.67-4.81.67Z"/>
        <path class="cls-1" d="M521.43,164.6c-2.72,0-5.12-.54-7.2-1.61-2.08-1.07-3.68-2.55-4.81-4.43-1.13-1.88-1.69-3.99-1.69-6.31v-4.84c0-2.33.56-4.43,1.69-6.31,1.13-1.88,2.71-3.36,4.76-4.43,2.04-1.07,4.37-1.61,6.99-1.61s4.94.54,6.99,1.61c2.04,1.08,3.63,2.55,4.76,4.43,1.13,1.88,1.69,3.99,1.69,6.31v.81c0,1.36-.48,2.51-1.45,3.44-.97.93-2.19,1.4-3.65,1.4h-14.94l3.39-2.31v2.1c0,.9.13,1.66.4,2.28.27.63.7,1.11,1.29,1.45.59.34,1.37.51,2.34.51.75,0,1.47-.08,2.15-.24.68-.16,1.45-.44,2.31-.83.64-.29,1.17-.49,1.59-.62.41-.12.81-.19,1.21-.19,1.18,0,2.15.34,2.9,1.02.75.68,1.13,1.5,1.13,2.47,0,.61-.18,1.24-.54,1.88-.36.65-.9,1.22-1.61,1.72-.97.72-2.26,1.28-3.87,1.69-1.61.41-3.55.62-5.8.62ZM517.94,148.8l-3.39-1.94h13.22l-3.39,1.94v-1.61c0-.86-.13-1.59-.4-2.2-.27-.61-.64-1.07-1.13-1.4-.48-.32-1.05-.48-1.69-.48s-1.21.15-1.69.46c-.48.3-.86.75-1.13,1.34s-.4,1.32-.4,2.18v1.72Z"/>
      </g>
      <path class="cls-1" d="M86.68,180.89C38.88,180.89,0,142,0,94.21c0-29.99,15.17-57.42,40.58-73.41,5.3-3.33,12.27-1.73,15.59,3.55,3.33,5.28,1.74,12.26-3.55,15.59-18.79,11.82-30,32.11-30,54.27,0,35.33,28.74,64.07,64.06,64.07s64.05-28.74,64.05-64.07c0-22.17-11.22-42.46-30.01-54.27-5.28-3.33-6.87-10.31-3.55-15.59,3.32-5.28,10.3-6.88,15.59-3.55,25.4,15.98,40.59,43.43,40.59,73.41,0,47.79-38.89,86.68-86.67,86.68Z"/>
      <path class="cls-2" d="M86.68,93.35c-6.25,0-11.32-5.07-11.32-11.31V11.31c0-6.24,5.07-11.31,11.32-11.31s11.3,5.07,11.3,11.31v70.73c0,6.24-5.07,11.31-11.3,11.31Z"/>
    </g>
  </g>
</svg>