<?xml version="1.0" encoding="UTF-8"?>
<svg id="svg39820" xmlns="http://www.w3.org/2000/svg" version="1.1" xmlns:xlink="http://www.w3.org/1999/xlink" viewBox="0 0 592 207">
  <defs>
    <style>
      .cls-1, .cls-2, .cls-3 {
        stroke-width: 0px;
      }

      .cls-1, .cls-3 {
        fill: #143861;
      }

      .cls-2 {
        fill: none;
      }

      .cls-4 {
        clip-path: url(#clippath);
      }

      .cls-3 {
        fillRule: evenodd;
      }
    </style>
    <clipPath id="clippath">
      <rect class="cls-2" x="0" y="26.9" width="592" height="153.2"/>
    </clipPath>
  </defs>
  <g id="layer1">
    <g id="g39870">
      <path id="path37627" class="cls-3" d="M53.6,109.5h-21.7l11.5-37.5,10.2,37.5ZM21.7,147.4l6.8-22.9h27.8l6.8,22.9h23.1l-24.4-86.7c-1.4-5.7-4.1-7.5-10.2-7.5H17.6v7.8h2.7c4.1,0,6.1,1.3,6.1,4.4s0,3.3-2,7.9L0,147.4"/>
      <path id="path37629" class="cls-1" d="M115.3,147.4V60.1c0-4.5-2.7-6.9-7.5-6.9h-21v7.8h1.4c4.1,0,6.1,1.7,6.1,5.4v81.1"/>
      <path id="path37631" class="cls-1" d="M153.2,147.4V60.1c0-4.5-2.7-6.9-7.5-6.9h-21v7.8h1.4c4.1,0,6.1,1.7,6.1,5.4v81.1"/>
      <path id="path37633" class="cls-3" d="M191.9,61.5c0-6.2-4.7-9.9-12.2-9.9s-12.2,3.7-12.2,9.9,4.1,10.1,12.2,10.1,12.2-3.7,12.2-10.1M191.2,147.4v-63.6c0-4.4-2.7-7-6.8-7h-21v7.7h1.4c4.1,0,5.4,1.7,5.4,5.6v57.4"/>
      <path id="path37635" class="cls-3" d="M241.4,113.2v14.1c-4.1,4.1-8.8,6.4-12.9,6.4s-6.1-2-6.1-7.3,1.4-8.1,6.1-9.9c3.4-1.4,6.8-2.3,12.9-3.3M211.6,96.3l2-.8c5.4-2.2,8.8-3,12.9-3.7,2-.3,4.7-.5,6.1-.5,6.8,0,8.8,2.2,8.8,8.5v1.8c-9.5,1.6-12.2,2.1-17.6,3.3-2.7.7-5.4,1.6-8.1,2.7-8.8,3.5-12.9,10.3-12.9,21s5.4,19.7,17.6,19.7,9.5-1.1,12.9-3.3c3.4-1.6,4.7-2.4,8.8-6.1v2.2c0,4.4,2,6.5,6.1,6.5h20.3v-7.3h-.7c-4.1,0-6.1-1.8-6.1-5.5v-34.7c0-18-6.1-24.1-23.7-24.1s-11.5.7-17,2c-5.4,1.3-8.1,2.2-14.2,5.4"/>
      <path id="path37637" class="cls-3" d="M300.4,147.4v-47.9c4.7-4.4,8.1-6.1,12.9-6.1s6.1,2,6.1,9.2v44.8h21v-48.1c0-9.9-1.4-14.2-4.1-17.9-3.4-3.7-7.5-5.4-13.6-5.4s-14.2,3-23.7,11.2v-3.8c0-4.4-2-6.6-6.1-6.6h-20.3v7.7h.7c4.1,0,6.1,1.7,6.1,5.6v57.4"/>
      <g class="cls-4">
        <g id="g37643">
          <path id="path37645" class="cls-1" d="M405.5,133.9h-31.2l29.8-42.6v-14.5h-44.8c-5.4,0-7.5,2.2-7.5,7.4v12.8h7.5v-1.4c0-3.9,2-5.4,6.1-5.4h16.3l-30.5,42.6v14.6h54.2"/>
          <path id="path37647" class="cls-3" d="M525.5,143.6V63.7c0-6.4-2.7-8.5-8.8-8.5h-18.3v8.8h2c3.4,0,4.7,1.3,4.7,5.2v74.4h20.3ZM536.4,143.6h19.7v-60.3c0-6.1-2.7-8.5-8.8-8.5h-10.9v68.8ZM494.3,143.6v-68.8h-10.8c-6.1,0-8.8,2.4-8.8,8.5v60.3h19.7ZM579.1,103.4c0,37.4-27.1,64.6-63.7,64.6s-63.7-27.3-63.7-64.6,27.1-64.6,63.7-64.6,63.7,27.3,63.7,64.6M592,103.4c0-43.7-32.5-76.6-76.6-76.6s-76.6,32.8-76.6,76.6,33.2,76.7,76.6,76.7,76.6-32.8,76.6-76.7"/>
        </g>
      </g>
    </g>
  </g>
</svg>