<?xml version="1.0" encoding="UTF-8"?>
<svg id="Capa_1" data-name="Capa 1" xmlns="http://www.w3.org/2000/svg" version="1.1" viewBox="0 0 300 100">
  <defs>
    <style>
      .cls-1 {
        fill: #24b4bd;
      }

      .cls-1, .cls-2, .cls-3 {
        stroke-width: 0px;
      }

      .cls-2 {
        fill: #3c3c3b;
      }

      .cls-3 {
        fill: #002f87;
      }
    </style>
  </defs>
  <path class="cls-2" d="M135.5,45.5c0,4.9-2.6,7.9-9.1,7.9h-4.2v7.5h-5.8v-23.4h10c6.2,0,9.1,3,9.1,7.9M129.6,45.5c0-2.3-.9-3.4-3.4-3.4h-3.8v6.6h3.8c2.5.2,3.4-1.1,3.4-3.2"/>
  <path class="cls-2" d="M150.2,41.5v5.8c-.8-.2-1.3-.2-2.1-.2-2.8,0-4,1.7-4.1,4.7v9.2h-5.7v-19.6h4.1l1.1,4c.8-2.5,2.8-4.2,5.5-4.2s.8,0,1.1.2"/>
  <path class="cls-2" d="M151.7,51.3c0-6.2,3.2-10,9.6-10s9.6,3.8,9.6,10-3.2,10.2-9.6,10.2-9.6-4-9.6-10.2M165.1,51.3c0-3.8-1.1-5.5-3.8-5.5s-3.8,1.7-3.8,5.5,1.1,5.7,3.8,5.7,3.8-1.9,3.8-5.7"/>
  <path class="cls-2" d="M191,41.5l-6.4,19.5h-6.4l-6.4-19.5h5.7l3.4,11.9c.2.9.4,1.7.6,2.6.2-.9.2-1.7.4-2.6l3.4-11.9h5.9,0Z"/>
  <path class="cls-2" d="M193.2,36.2h5.7v3.6h-5.7v-3.6ZM193.2,41.5h5.7v19.5h-5.7v-19.5Z"/>
  <path class="cls-2" d="M221.2,48.1v12.8h-5.7v-11.5c0-2.5-.9-3.6-3-3.6s-3.6,1.3-3.8,4.3v10.8h-5.7v-19.5h4.3l.9,3.4c.9-2.5,3.6-4,6.2-3.8,4.1.2,6.6,2.5,6.6,7"/>
  <path class="cls-2" d="M224.4,51.3c0-6.2,3.4-10,10-10s4.9.8,6.8,2.1l-1.7,4.7c-1.1-1.3-2.8-2.1-4.7-2.1s-4.5,1.7-4.5,5.3,2.3,5.3,4.5,5.3,3.4-.8,4.7-2.1l1.7,4.5c-2.1,1.5-4.3,2.3-6.8,2.3-6.4,0-10-3.8-10-10"/>
  <path class="cls-2" d="M244,36.2h5.7v3.6h-5.7v-3.6ZM244,41.5h5.7v19.5h-5.7v-19.5Z"/>
  <path class="cls-2" d="M270.5,48.9v12.1h-4.1l-.9-3.6c-.9,2.5-3.6,4.2-6.2,4-4.1,0-5.9-2.5-5.9-5.5,0-5.5,5.5-6,11.7-6.6,0-2.5-1.7-3.4-4.1-3.4s-4,.9-5.5,2.3l-2.3-4.2c2.5-1.7,5.3-2.6,8.3-2.6,6.2,0,8.9,2.6,9.1,7.5M264.8,53.6v-1.3c-3.6.4-6,.8-6,3s.6,1.9,2.3,1.9,3.6-1.5,3.8-3.6"/>
  <path class="cls-3" d="M32.9,55.6l21.9-13.8c4.9-3,9.8-.6,9.8,4.7v16c0,1.7,1.3,3,3,3.2h4.5c13.6,0,25.5-9.8,25.5-26.6s-13.6-28.3-29.7-28.3h-34c-2.5,0-4.5,2.1-4.5,4.5v38.7c.2,1.1,1.3,2.1,2.5,1.9.4,0,.8-.2.9-.4"/>
  <path class="cls-1" d="M29.5,66.3v3.8c.2,8.9,7.4,15.9,16.1,15.9h9.1c2.6.2,4.7-1.9,4.9-4.3v-31.9c0-1.5-1.1-2.6-2.6-2.6s-1.1.2-1.5.6l-24,15.3c-1.3.6-2.1,1.9-1.9,3.4"/>
  <path class="cls-2" d="M147.5,78.4c-1.8-2.1-2.1-4.5-.8-6.4,1.2-1.7,3-2.1,4.9-2.2,2.2-.1,3.3.2,5.4,1.4.8-.9,1.5-1.9,3-1.7v2.7c-.7.2-1.5.5-2.2.8,1.7,3.7-.9,6.4-4.9,6.6-1,0-2.1-.2-3.1-.2-.3,0-1,.3-1,.4,0,.4.1,1,.4,1.3.3.3.9.3,1.4.3,1.7,0,3.5.1,5.2.2,2.2.2,3.4,1.1,3.6,2.8.2,2.2-.5,3.6-2.7,4.2-4,1.2-8,.7-11.9-1.1.4-.9.8-1.7,1.2-2.5,2.6,1.7,5.4,2,8.2,1.6,1-.1,2.1-.1,2.3-1.4.1-.8-.7-1.2-2.3-1.2-1.5,0-2.9-.1-4.4-.1-3.6,0-4.5-2.8-2.4-5.4h0ZM152.1,77.3c2.4,0,3.6-1,3.4-2.9-.1-1.4-1.1-2.2-3-2.3-1.9-.2-3.5.6-3.9,1.8,0,.1,0,.2,0,.3-.2,2,.9,3,3.4,3h0Z"/>
  <path class="cls-2" d="M126.9,68.1c-.4.9-.8,1.7-1.1,2.4-1.5-.4-2.8-1-4.2-1.2-.9-.2-1.9,0-2.8.2-.6.2-1.2,1-1.4,1.7-.3.9.3,1.6,1.1,2,.9.4,1.8.7,2.7.9.8.3,1.7.4,2.5.8,2.4.9,3.3,2.2,3.3,4.8,0,2.5-1.2,4.2-3.4,5-2.4.8-4.8.6-7.1,0-.9-.3-1.8-.8-2.8-1.2.5-.9.9-1.8,1.3-2.5,1.7.5,3.3,1.1,4.9,1.4.8.2,1.7,0,2.6-.2,1.1-.3,1.7-1.1,1.8-2.2,0-1.1-.5-1.8-1.5-2.2-.9-.4-1.8-.6-2.7-.9-.6-.2-1.3-.3-1.9-.6-2.7-.9-3.7-2.4-3.6-5,.1-2.3,1.5-3.9,4-4.5,3-.7,5.8-.2,8.6,1.3h0Z"/>
  <path class="cls-2" d="M141.3,80.9c.4.8.9,1.4,1.3,2.2-2.2,2-4.7,2.4-7.4,2-4.6-.7-5.6-4-5.6-7.9,0-.7,0-1.4.2-2.1.8-3.7,3.1-5.4,6.9-5.2,3.4.1,5.5,2.1,6,5.7.1,1,.2,2,.3,3.2h-10.3c-.3,1.3.4,2.7,1.6,3.5,2,1.2,4.4.8,7-1.2h0ZM132.6,76.3h7.3c.2-2.5-1.2-4.1-3.5-4.1-2.3,0-3.9,1.6-3.7,4.1Z"/>
  <path class="cls-2" d="M203.3,77.6c0,.6,0,1.4-.2,2.2-.7,3.7-3,5.4-7.2,5.3-3.5,0-5.8-2.1-6.2-5.6-.2-1.4-.2-2.9,0-4.4.5-3.9,3.6-5.9,7.9-5.3,3.4.5,5.4,2.5,5.6,6,0,.6,0,1.1,0,1.9ZM200.5,77.5c-.1-.8-.2-1.7-.4-2.5-.5-1.9-1.6-2.8-3.6-2.8-2.1,0-3.6.7-3.9,2.7-.3,1.6-.3,3.4,0,5,.3,1.9,1.9,2.9,3.8,2.9,1.9,0,3.2-1,3.7-2.9.2-.8.2-1.6.4-2.3h0Z"/>
  <path class="cls-2" d="M162.6,70h2.7v5.1c0,1.4,0,2.8,0,4.2,0,1.9.7,2.9,2.1,3.2,1.8.4,3.6-.2,4.3-1.7.4-.9.7-2,.7-3.1.1-2.6,0-5.1,0-7.8h2.6v14.8c-1.1.3-1.9-.4-2.5-2.1-1.3,1.9-3.1,2.6-5.3,2.5-2.7,0-4.6-1.5-4.7-4.2-.2-3.6,0-7.3,0-11h0Z"/>
  <path class="cls-2" d="M205.6,83.1c.4-.7.9-1.4,1.2-2,1.3.5,2.4,1.2,3.7,1.5.8.2,1.8,0,2.7,0,.8-.2,1.6-.8,1.4-1.7-.1-.6-.7-1.4-1.2-1.6-1.4-.6-2.9-.8-4.3-1.3-2.2-.7-3.1-2-3-4.1,0-1.9,1.2-3.1,2.9-3.7,2.9-1,5.7-.4,8.4,1.3-.5.8-.9,1.5-1.3,2.3-1.6-1.2-3.3-1.9-5.2-1.5-.9.2-1.8.5-1.9,1.6-.1,1.2.7,1.6,1.6,1.8,1.1.3,2.3.6,3.4.9,2.5.7,3.6,2,3.5,4.1,0,2.3-1.4,3.9-3.9,4.3-2.9.5-5.6,0-8-1.9h0Z"/>
  <path class="cls-2" d="M182.1,84.9h-2.6v-15.1c.7.2,1.6.2,1.9.7.4.5.4,1.3.6,2.3,1.3-2,2.8-3.2,5.2-2.9v2.7c-.3,0-.6,0-.9,0-2.5,0-3.8,1.1-4,3.6-.2,2.2-.1,4.3-.2,6.5,0,.7,0,1.3,0,2.1Z"/>
</svg>