<?xml version="1.0" encoding="UTF-8"?>
<svg id="Layer_1" data-name="Layer 1" xmlns="http://www.w3.org/2000/svg" version="1.1" viewBox="0 0 619 191">
  <defs>
    <style>
      .cls-1 {
        fill: #000;
      }

      .cls-1, .cls-2 {
        stroke-width: 0px;
      }

      .cls-2 {
        fill: #83b14a;
      }
    </style>
  </defs>
  <path class="cls-1" d="M290.3,116.7c-.2-4.5-3.5-5.9-6.5-5.9s-5.9.7-5.9,5.1,1.5,3.3,3.1,3.7l7.4,1.9c3.4.9,5.9,3.1,5.9,7.7,0,6.9-5.8,8.7-10.2,8.7s-6.7-1.6-7.9-2.8c-2.2-2.2-2.6-4.6-2.6-7.3h3.3c0,5.2,3.9,6.8,7.2,6.8s6.8-.7,6.8-4.9-1.2-4-5.5-5.1l-5.3-1.4c-1.7-.5-5.5-1.8-5.5-6.8s2.6-9,9-9c9.1,0,10,6.1,10.2,9.2h-3.3Z"/>
  <path class="cls-1" d="M331.4,137.1h-19.2v-28.9h19v3.5h-15.4v8.9h14.3v3.5h-14.3v9.7h15.7v3.5h0Z"/>
  <path class="cls-1" d="M360.4,121.7h11.4v15.5h-2.3l-.8-3.8c-1.8,2.7-5,4.5-8.6,4.5s-6.6-1.8-8-3.3c-4-4.2-4.1-9.1-4.1-12.2,0-7.1,3.8-15,12.3-15s10.3,3.1,11,9.6h-3.4c-1.1-5-4.9-6.1-7.8-6.1-4.7,0-8.5,4.1-8.5,11.7s1.7,11.9,8.6,11.9,3.4-.2,5.3-1.8c2.3-2,2.9-4.6,2.9-7.7h-8.1v-3.4h0Z"/>
  <path class="cls-1" d="M410.8,108.2v18.8c0,5.9-3.3,10.9-10.5,10.9s-10-5-10-10.4v-19.3h3.5v18.2c0,6.3,3.5,8,6.6,8s6.9-1.6,6.9-7.9v-18.3h3.5Z"/>
  <path class="cls-1" d="M433.4,137.1h-3.5v-28.9h12c4.3,0,8.6,1.7,8.6,7.8s-2,5.8-3.6,6.9c1.5.7,3,1.4,3.1,5.4l.2,5.2c0,1.6.2,2.2,1.3,2.9v.6h-4.3c-.5-1.8-.6-6.2-.6-7.3,0-2.4-.4-5.1-4.6-5.1h-8.5v12.4h0ZM433.4,121.4h8.2c2.6,0,5.3-.8,5.3-5s-2.9-4.8-4.7-4.8h-8.8v9.8Z"/>
  <path class="cls-1" d="M480.9,137.9c-9.7,0-12.7-9-12.7-15.2s3-15.2,12.7-15.2,12.7,9,12.7,15.2-3,15.2-12.7,15.2ZM480.9,110.9c-5.7,0-9.1,5-9.1,11.8s3.4,11.8,9.1,11.8,9-4.9,9-11.8-3.4-11.8-9-11.8Z"/>
  <path class="cls-1" d="M526.3,116.7c-.2-4.5-3.5-5.9-6.5-5.9s-5.9.7-5.9,5.1,1.5,3.3,3.1,3.7l7.4,1.9c3.4.9,5.9,3.1,5.9,7.7,0,6.9-5.7,8.7-10.2,8.7s-6.7-1.6-7.9-2.8c-2.2-2.2-2.7-4.6-2.7-7.3h3.3c0,5.2,3.8,6.8,7.2,6.8s6.8-.7,6.8-4.9-1.3-4-5.5-5.1l-5.3-1.4c-1.7-.5-5.5-1.8-5.5-6.8s2.6-9,8.9-9c9.1,0,10,6.1,10.2,9.2h-3.3Z"/>
  <path class="cls-2" d="M186,53.1h-32.9l-5.1,23.6h22.2l51.9,60.5h37.1l-73.2-84ZM88.7,53.1v84h46.6l5.6-26.2h-25v-28.7l47.7,54.9h37.1L127.3,53.1h-38.7Z"/>
  <path class="cls-1" d="M272.9,95.6v-38h13.5l6,23.7,6-23.7h13.5v38h-10v-17.5c.1,0,.7-6.9.7-6.9h-.1l-6.2,24.4h-7.8l-6.2-24.4h0l.5,5.6.2,5.9v12.9h-10.1Z"/>
  <path class="cls-1" d="M325.2,84.3c0,3.3,2.3,5.4,4.9,5.4s3-.8,3.7-2.4h9.5c-1.7,6.9-8,9.2-13.8,9.2s-14.2-5.1-14.2-14.4,6.1-14.9,14.1-14.9,14.8,7.1,14.6,17.1h-18.9ZM334.2,78.7c0-2.5-2-4.8-4.4-4.8s-4.6,1.9-4.6,4.8h9Z"/>
  <path class="cls-1" d="M347,67.9h9v5.6h.1c1.4-4.3,3.8-6.4,7.6-6.4s.8,0,1.3.2v11c-.7-.1-1.4-.3-2-.3-4,0-6.1,2.1-6.1,8.1v9.5h-9.9v-27.7h0Z"/>
  <path class="cls-1" d="M367.6,56.6h9.9v7.8h-9.9v-7.8ZM367.6,95.6v-27.7h9.9v27.7h-9.9Z"/>
  <path class="cls-1" d="M400,95.6v-3.7c-2.3,3.4-4.5,4.5-7.6,4.5-7.5,0-11.3-6.3-11.3-14.1s4.6-15.1,10.6-15.1,5.3.9,7.4,3.6v-13.1h9.9v38h-8.9ZM399.3,82c0-3.1-1-6.4-4.2-6.4s-4.2,3.5-4.2,6.6.7,6.3,3.9,6.3,4.5-3.2,4.5-6.4Z"/>
  <path class="cls-1" d="M413.1,56.6h9.9v7.8h-9.9v-7.8ZM413.1,95.6v-27.7h9.9v27.7h-9.9Z"/>
  <path class="cls-1" d="M440.8,67.1c8.8,0,14.2,5.8,14.2,14.4s-6.2,14.9-14.2,14.9-14.2-4.9-14.2-14.3c0-9.6,5.7-14.9,14.1-14.9ZM436.5,81.5c0,5.2,1.8,7.5,4.3,7.5s4.3-2.3,4.3-7.5-1.6-7.1-4.2-7c-3.4,0-4.4,3.8-4.4,7Z"/>
  <path class="cls-1" d="M458,67.9h9v4.3c2.2-3.3,4.6-5.1,8.4-5.1,6.5,0,9.6,4.3,9.6,11.9v16.6h-9.9v-14.6c0-2.8-.7-5.2-3.5-5.2s-3.8,2.2-3.8,5.7v14.1h-9.9v-27.6h0Z"/>
  <path class="cls-1" d="M506.3,95.6l-.5-3c-2.8,2.9-5.7,3.8-9.3,3.8s-8.9-2.6-8.9-8.4c0-12.6,17.7-6.9,17.7-12s-2.2-2.3-3.2-2.3-3.2.3-3.5,2.7h-9.5c0-5.9,3.8-9.3,13.6-9.3s12.5,4.9,12.5,11.5v13c0,1.6,0,2.4,1.3,3.5v.5h-10.2ZM505.3,83.4c-3.2,1.7-7.5.9-7.5,4.5s1.2,2.3,3.1,2.3c3.5,0,4.6-3,4.4-6.8Z"/>
  <path class="cls-1" d="M520,95.6v-38h9.9v38h-9.9Z"/>
</svg>