<?xml version="1.0" encoding="UTF-8"?>
<svg id="Capa_1" data-name="Capa 1" xmlns="http://www.w3.org/2000/svg" viewBox="0 0 300 100">
  <defs>
    <style>
      .cls-1 {
        fill: #09d78e;
      }

      .cls-1, .cls-2 {
        stroke-width: 0px;
      }

      .cls-2 {
        fill: #171669;
      }
    </style>
  </defs>
  <g>
    <path class="cls-1" d="M64.4,76.89c-.78,0-1.48-.11-2.09-.33-.61-.22-1.19-.58-1.75-1.08-.12-.09-.21-.19-.27-.32-.06-.12-.09-.25-.09-.38,0-.21.08-.39.23-.56s.34-.25.57-.25c.17,0,.34.06.49.18.41.38.85.67,1.3.87.45.2.98.29,1.59.29.44,0,.84-.07,1.2-.21.36-.14.66-.33.87-.57.22-.24.33-.52.33-.83,0-.39-.11-.72-.33-.97-.22-.26-.54-.47-.96-.64-.42-.17-.92-.31-1.51-.43-.54-.1-1.03-.23-1.46-.41-.43-.17-.8-.39-1.1-.66s-.54-.58-.7-.96c-.16-.37-.24-.8-.24-1.29,0-.66.17-1.24.52-1.71.35-.48.82-.85,1.42-1.11.6-.26,1.27-.39,2.03-.39.69,0,1.33.11,1.93.32.6.21,1.08.5,1.45.86.26.23.39.47.39.73,0,.2-.08.38-.24.55-.16.17-.34.25-.55.25-.15,0-.28-.04-.39-.13-.17-.18-.41-.35-.7-.5s-.61-.27-.94-.37c-.33-.1-.65-.15-.96-.15-.49,0-.91.07-1.26.2-.35.14-.62.32-.8.56-.18.23-.28.51-.28.82,0,.37.11.68.32.92.21.24.51.43.89.58.38.15.82.28,1.31.4.6.13,1.13.28,1.61.44s.87.37,1.2.63c.33.26.58.57.75.96.17.38.26.86.26,1.42,0,.65-.19,1.23-.56,1.71-.37.49-.86.87-1.46,1.14-.6.27-1.28.41-2.02.41Z"/>
    <path class="cls-1" d="M74.26,76.89c-.9,0-1.69-.19-2.35-.56-.67-.38-1.18-.89-1.54-1.55-.37-.66-.55-1.41-.55-2.26,0-.96.19-1.78.58-2.46s.89-1.2,1.51-1.57c.62-.36,1.28-.55,1.98-.55.53,0,1.04.11,1.52.32.48.21.91.51,1.28.88.38.38.67.82.89,1.32.22.51.33,1.06.34,1.66-.01.22-.1.4-.26.54-.16.14-.35.21-.57.21h-6.35l-.39-1.39h6.14l-.31.29v-.41c-.02-.38-.15-.72-.38-1s-.51-.51-.85-.67c-.34-.16-.69-.24-1.06-.24-.33,0-.64.05-.94.15-.3.1-.57.27-.8.5-.23.23-.42.53-.55.91-.14.38-.21.84-.21,1.4,0,.6.12,1.12.38,1.57.25.45.59.79,1.01,1.04.42.25.89.37,1.4.37.4,0,.73-.04,1-.12.26-.08.48-.18.65-.3.17-.12.33-.23.46-.34.16-.1.33-.15.49-.15.2,0,.36.07.49.2.13.14.2.3.2.48,0,.24-.12.46-.36.65-.29.28-.7.53-1.22.75-.52.22-1.06.33-1.62.33Z"/>
    <path class="cls-1" d="M83.34,67.94c.47,0,.9.08,1.29.23.39.15.73.35,1.02.58s.51.48.68.73c.16.25.25.47.25.65l-.38.02v-1.31c0-.23.08-.42.23-.59.15-.16.35-.25.59-.25s.43.08.59.24c.15.16.23.36.23.6v7.2c0,.92-.2,1.68-.59,2.26-.39.58-.91,1.01-1.56,1.28-.65.27-1.36.41-2.13.41-.27,0-.59-.04-.96-.11-.37-.07-.71-.16-1.02-.25s-.53-.2-.65-.29c-.25-.13-.42-.28-.5-.46-.08-.17-.08-.35,0-.52.11-.24.26-.39.44-.44s.4-.04.64.05c.11.03.28.09.51.18s.48.17.77.24c.28.07.55.11.8.11.87,0,1.53-.2,1.97-.6.44-.4.66-.95.66-1.65v-1.47l.18.11c-.03.23-.13.46-.3.69-.17.23-.39.45-.66.65-.27.2-.58.36-.94.48-.35.12-.71.19-1.09.19-.77,0-1.46-.19-2.07-.58-.61-.39-1.09-.92-1.45-1.58-.36-.67-.54-1.44-.54-2.31s.18-1.64.54-2.31c.36-.67.84-1.2,1.45-1.58.6-.39,1.28-.58,2.03-.58ZM83.59,69.45c-.53,0-1,.13-1.4.39-.4.26-.72.62-.95,1.06-.23.45-.34.95-.34,1.52s.11,1.07.34,1.52.54.8.95,1.06c.4.26.87.39,1.4.39s1-.13,1.41-.38c.4-.26.72-.61.95-1.06.23-.45.34-.96.34-1.53s-.11-1.08-.34-1.53-.54-.81-.95-1.06c-.4-.26-.87-.38-1.41-.38Z"/>
    <path class="cls-1" d="M96.5,68.14c.23,0,.42.08.58.24.16.16.24.36.24.6v4.29c0,1.13-.32,2.02-.95,2.65-.63.64-1.52.96-2.68.96s-2.03-.32-2.65-.96c-.63-.64-.94-1.52-.94-2.65v-4.29c0-.24.08-.44.23-.6.15-.16.35-.24.59-.24s.42.08.58.24c.16.16.24.36.24.6v4.29c0,.71.17,1.24.5,1.58.33.35.82.52,1.46.52s1.15-.17,1.49-.52c.34-.35.51-.88.51-1.58v-4.29c0-.24.08-.44.23-.6.15-.16.35-.24.59-.24Z"/>
    <path class="cls-1" d="M100.41,76.73c-.24,0-.44-.08-.59-.24-.15-.16-.23-.36-.23-.6v-6.92c0-.24.08-.44.23-.6.15-.16.35-.24.59-.24s.42.08.58.24c.16.16.24.36.24.6v1.83l-.16-.7c.09-.3.22-.59.4-.85.18-.26.39-.49.65-.69.25-.2.53-.35.84-.46.31-.11.63-.16.97-.16.28,0,.53.08.74.23.21.15.31.34.31.57,0,.29-.08.51-.23.64-.15.14-.32.2-.51.2-.16,0-.32-.04-.47-.11-.15-.07-.33-.11-.54-.11-.23,0-.46.06-.7.18s-.46.3-.65.53c-.2.23-.35.51-.46.83-.12.32-.17.67-.17,1.06v3.92c0,.24-.08.44-.24.6-.16.16-.35.24-.58.24Z"/>
    <path class="cls-1" d="M114.65,72.43c0,.87-.19,1.64-.57,2.31-.38.67-.9,1.2-1.55,1.58-.65.38-1.39.57-2.2.57s-1.55-.19-2.21-.57-1.17-.91-1.56-1.58-.58-1.44-.58-2.31.19-1.66.58-2.33c.39-.67.91-1.2,1.56-1.58s1.39-.58,2.21-.58,1.55.19,2.2.58c.65.39,1.17.92,1.55,1.58.38.67.57,1.45.57,2.33ZM113.02,72.43c0-.6-.12-1.12-.36-1.56-.24-.44-.56-.79-.97-1.04-.41-.26-.86-.38-1.36-.38s-.96.13-1.37.38-.74.6-.98,1.04c-.24.44-.36.96-.36,1.56s.12,1.09.36,1.54c.24.45.57.79.98,1.04.41.25.87.38,1.37.38s.96-.12,1.36-.38c.41-.25.73-.6.97-1.04.24-.45.36-.96.36-1.54Z"/>
    <path class="cls-1" d="M115.99,75.39c-.1-.15-.14-.33-.13-.53.01-.2.12-.37.34-.51.15-.1.31-.14.48-.12s.33.1.48.25c.3.34.65.6,1.02.8.38.2.83.29,1.36.29.22-.01.44-.05.67-.11s.42-.17.59-.33c.16-.16.25-.39.25-.69,0-.27-.09-.49-.26-.65-.17-.16-.4-.3-.69-.4-.28-.1-.59-.2-.92-.29-.35-.1-.7-.21-1.05-.33-.35-.12-.67-.28-.96-.47s-.51-.44-.69-.74-.27-.68-.27-1.13c0-.51.14-.95.43-1.32.29-.37.66-.66,1.13-.87s.97-.31,1.51-.31c.32,0,.65.04,1,.12.35.08.69.21,1.01.38.33.17.61.4.85.69.11.14.17.31.19.51.02.2-.07.37-.27.52-.13.11-.29.16-.47.15-.19-.01-.34-.07-.46-.18-.21-.26-.47-.46-.8-.61-.33-.15-.7-.22-1.11-.22-.21,0-.42.03-.65.09-.22.06-.41.17-.56.32-.15.15-.23.38-.23.67,0,.27.09.49.27.65s.42.3.71.41c.29.11.61.21.96.29.34.09.67.19,1,.31.33.12.63.28.9.47.27.19.48.44.65.73.17.3.25.68.25,1.14,0,.53-.16.99-.47,1.36-.31.38-.7.66-1.18.86-.47.2-.97.29-1.49.29-.62,0-1.24-.11-1.85-.33-.62-.22-1.14-.61-1.56-1.17Z"/>
  </g>
  <path class="cls-2" d="M241.04,29.16h-5.64l-3.2,5.6h4.44l4.4-5.6ZM149,53.6c-2.79,0-9.33-2.2-9.33-9.55,0-1.3.55-3.82,1.6-5.41h-4.84c-.61,1.22-1.09,3.56-1.09,5.41,0,4.61,3.44,13.66,13.66,13.66,7.63,0,11.95-5.65,12.81-9.82h-4.23c-.39,1.99-3.2,5.71-8.58,5.71M116.26,37.04c-2.95,0-5.07,1.26-6.27,2.34l-4.18-1.89v19.74h4.18v-9.51c0-3.03,1.27-6.72,5.71-6.72,3.75,0,4.44,3.53,4.44,5.07v11.16h4.18v-11.68c0-3.09-1.57-8.51-8.06-8.51M92.38,37.04c-4.68,0-7.94,2.73-8.53,6.94h4.09c0-1.8,2.17-3.1,4.58-3.1,2.76,0,4.03,1.87,4.03,4.1h-5.52c-5.59,0-8.06,3.04-8.06,6.42,0,2.99,2.16,6.31,7.35,6.31,3.19,0,5.45-1.54,6.23-2.25l4.11,1.76v-12.61c0-3.04-1.58-7.57-8.29-7.57M90.62,54.01c-2.56,0-3.57-1.57-3.57-2.65,0-2.18,2.14-2.8,3.95-2.8h5.56c0,2.38-1.64,5.45-5.94,5.45M69.45,41.65c-2.05-.43-4.76-.76-5.06-3.01h-4.49c.61,4.3,2.22,5.82,9.55,7.29,3.46.69,6.15.88,6.15,3.83s-2.99,3.99-5.41,3.99c-3.12,0-6.74-1.87-6.74-4.85h-4.44c0,4.26,3.95,8.81,10.92,8.81,7.92,0,9.96-5.16,9.96-8.1,0-5.52-4.1-6.65-10.44-7.96M182.05,34.57h4.22v-3.72h-4.22v3.72ZM234.91,37.08c-5.76,0-10.43,4.61-10.43,10.3s4.67,10.3,10.43,10.3,10.43-4.61,10.43-10.3-4.67-10.3-10.43-10.3M234.91,53.85c-3.55,0-6.42-2.9-6.42-6.48s2.88-6.47,6.42-6.47,6.42,2.9,6.42,6.47-2.88,6.48-6.42,6.48M282.07,37.03c-4.68,0-7.94,2.73-8.53,6.94h4.1c0-1.8,2.16-3.1,4.58-3.1,2.76,0,4.03,1.87,4.03,4.1h-5.52c-5.59,0-8.06,3.04-8.06,6.42,0,3,2.16,6.31,7.35,6.31,3.19,0,5.45-1.53,6.23-2.25l4.11,1.77v-12.61c0-3.04-1.58-7.57-8.29-7.57M280.31,54.01c-2.56,0-3.57-1.57-3.57-2.65,0-2.18,2.14-2.8,3.95-2.8h5.56c0,2.38-1.64,5.45-5.94,5.45M259.91,37.03c-3.42,0-5.99,1.81-6.64,2.38v-10.4h-4.18v28.21l4.18-1.89c.65.56,2.86,2.38,6.64,2.38,4.96,0,9.85-3.86,9.85-10.34,0-4.01-2.84-10.34-9.85-10.34M259.46,53.83c-2.35,0-6.19-1.79-6.19-6.45,0-3.06,2.44-6.49,6.19-6.49,3.35,0,6.19,2.48,6.19,6.49,0,3.39-2.29,6.45-6.19,6.45M294.25,57.22h4.18v-28.21h-4.18v28.21ZM170.06,39.38l-4.18-1.89v19.74h4.18v-9.52c0-4.18,2.11-6.72,5.71-6.72,1.08,0,2.75.34,2.75.34l.32-3.93c-.87-.24-1.71-.36-2.51-.36-3.08,0-5.11,1.26-6.27,2.34M182.05,57.22h4.22v-19.74h-4.22v19.74ZM198.67,45.2c-1.42-.29-3.54-.53-3.54-2.16,0-1.49,1.43-2.35,3.4-2.35,2.51,0,4.15,1.57,4.37,2.8h4.05c-.34-2.28-2.22-6.46-8.35-6.46-4.95,0-7.65,2.83-7.65,6.23s2.51,4.98,7.72,5.89c2.28.4,4.3.95,4.3,2.39,0,1.17-1.05,2.46-3.73,2.46s-4.68-1.51-4.89-3.1h-4.12c0,2.78,2.35,6.79,8.79,6.79,3.68,0,8.1-1.67,8.1-6.35,0-3.99-3.05-5.05-8.44-6.16M220.73,41.55l1.99-4.07h-7.11v-5.86h-4.22v19.18c0,3.55,2.02,6.91,6.76,6.91,1.61,0,3.28-.85,3.99-1.39v-4.41c-1.2.9-2.63,1.76-3.81,1.76-1.99,0-2.72-1.38-2.72-3.06v-9.07h5.12Z"/>
  <path class="cls-1" d="M62.21,35.91s.01.05.02.07c.01.06.03.12.05.18.38,1.16,1.34,1.96,1.83,2.3.09.06.19.13.29.19-.3-2.73,1.96-4.33,4.97-4.33,4.1,0,5.93,3.18,5.93,4.59.99,0,3.23,0,4.33,0-.47-3.2-2.64-8.51-10.19-8.51-3.29,0-5.48,1.09-6.55,2.53,0,0,0,0,0,0-.51.76-.72,1.46-.75,2.08,0,.05,0,.1,0,.15,0,.04,0,.08,0,.11,0,.21.04.42.09.63"/>
  <path class="cls-1" d="M149,30.39c-6.46,0-11.29,4.24-7.74,8.25,1.53-2.08,3.98-4.14,7.74-4.14,4.74,0,7.92,2.87,8.57,5.52h4.24c-.59-2.99-4.01-9.63-12.81-9.63"/>
  <path class="cls-2" d="M46.11,33.35c-3.76-7.89-11.81-13.35-21.13-13.35S7.77,25.34,3.96,33.1c-.11.22,0,.49.23.57l2.18.8c.19.07.4-.02.5-.2,3.34-6.62,10.19-11.16,18.11-11.16,8.82,0,16.32,5.63,19.12,13.49.13.35.61.38.76.03l1.26-2.94c.05-.11.05-.24,0-.35ZM30.75,45.14c-1.03-.26-1.32.68-.31,1.4,1.19.85,1.08.1,1.08.1,0,0,.94.82,1.2.29.23-.47-.93-1.53-1.97-1.78ZM45.06,39.13c-.34-.14-.6-.17-.8-.15-.27.02-.49.21-.59.46l-6.63,15.82c-.18-.06-.37-.11-.58-.12-.94.17-1.53.8-2.02,1.61-.02.07-.02.14-.02.2-.25.07-.5.11-.72.05-.88-.85-1.27-1.97-1.44-2.74.58.56,1.39.78,1.92.84.18.02.32-.18.22-.34-.1-.16-.2-.36-.27-.62.61.44,1.69.35,2.29.26.16-.03.24-.21.15-.35-.09-.14-.17-.33-.16-.6,0-.64.86-1.33.86-1.33h0c.09-.08.17-.15.26-.23.44-.45,1.32-1.53,1.52-3.06.27-2.06-.31-2.95-.31-2.95,0,0,.53.12.82-.44.34-.65.12-1.58-.02-2.03-1.11-3.08-4.06-5.28-7.52-5.27-1.26,0-2.45.31-3.51.84-.68-.74-1.17-1.66-1.28-2.63t.02-.01c.28.08.7.09,1.25-.13.09-.04.08-.16,0-.2-.17-.06-.3-.19-.4-.32,1.34-.08,2.4-1.19,2.39-2.54,0-.42-.12-.81-.3-1.16.43-2.27-.34-5.48-3.89-6.59-2.5-.79-4.79.15-5.78,1.24-.69.76-.93,2.08-.44,2.82-.22.58-.31,1.22-.21,1.79.05.63-.37.74-.82,1.08-.38.38-.18.96.08,1.25-.39,1.47.09,3.06,1.76,3.53,0,.12,0,.08-.01.2-2.17.26-4.32.94-6.3,1.82-1.03.5-2.2.78-3.35.7-1.03-.05-2.06-.33-3-.79-.16-.09-.37-.22-.58-.4-.34-.29-.73-.64-1.45-.83-.82-.22-2.19-.05-2.72.04-.36.06-.54.74.35.96.1.03.2.05.3.08-.14.16-.27.33-.31.44-.1.28.17.57.61.43.25-.08.52-.27.78-.51.15.06.27.12.32.15.24.16.22.55-.43.56-.78,0-1.02.41-.97.67.07.39.53.24,1.08.34.55.11.57.28,1.54.35.32.02.76.36.76.36h.03c.49.36.99.68,1.52.98,1.92,1.16,4.24,1.5,6.45,1.2,0,.05-.02.1-.03.15l-.14.94s0,.02,0,.04c-.76,1.51-1.03,3.29-.74,4.98-.43.22-.89.59-1.3,1.2-1.38,2.01-.09,3.93,0,5.85.01.3-.2,1.99-.32,2.77-4.91-3.61-8.14-9.36-8.28-15.89,0-.17-.11-.31-.26-.37l-2.2-.81-.45-.18s-.2-.06-.2.19c0,.25,0,.75,0,.75h0c.02,13.39,11.27,24.14,24.83,23.33,1.51-.09,3.01-.36,4.48-.75.46-.12.92-.25,1.37-.4,1.13-.37,2.24-.86,3.31-1.4h0s.07-.04.11-.05c.03-.01.05-.02.08-.04h0s.04-.03.06-.04c.09-.05.17-.09.24-.16.04-.04.08-.09.12-.13.18-.16.39-.36.57-.6.13-.18-.58-.95-.86-1.23.03,0,.07-.02.11-.02-.06-.04-1.02-.46-1.02-.46-.4-.24-.65-.31-.62-.76,0-.15.08-.24.17-.32.73.01,1.39.24,1.93.19.02-.02.01-.05-.01-.07-.54-.37-1.14-.74-1.8-.73-.03-.21-.08-.43-.04-.6.02-.08.12-.16.19-.22.34-.14.73-.3,1.03-.23.16.04.32.11.48.19.31.15.64.32.97.38-.22-.43-.79-.77-1.25-1.06-.29-.11-.56-.12-.82-.06-.1.02-.2.05-.3.09-.01-.09-.01-.17,0-.25,0,0,0,0,0-.01,0-.16.19-.25.3-.33.38-.17.84-.39,1.15-.36.47.14.97.56,1.4.85.04.03.1-.02.07-.06-.75-1.16-1.41-1.57-2.42-1.18-.09.04-.17.07-.27.11-.01-.03-.02-.06-.02-.1.12-.17.28-.38.47-.58.35-.37.79-.69,1.23-.53,0,0,0,0,.01,0,.4.16.76.44,1.07.76.27.28.52.6.74.91l.13-.33.12-.32.04-.09,6.91-16.52c.11-.28.03-.61-.2-.8-.13-.11-.31-.22-.58-.33ZM19.78,34.41c.24-.04.43-.14.56-.25.11-.1.08-.28-.07-.33l-.45-.14c.01-.08.02-.17.04-.25.03-.16-.12-.28-.24-.37-.06-.06-.13-.14-.13-.22,0-.02,0-.05,0-.07.28-.16.65-.4.8-.77.05-.12.07-.23.09-.35.07.06.16.11.27.13.59.07.58-.4.58-.4l.65.17c-.06-.56-.73-.91-1.2-.81-.13.03-.23.09-.31.17-.02-.33-.03-.65.14-.97.15-.38.35-.77.56-1.14.03-.03.07-.06.09-.1.25.54.89.74,1.5.67-.54,1.06-.95,2.46.41,3.01.19.06.47-.09.54-.19,1.77-2.46,2.68,1.46.12,1.09-.17.03-.21.12-.17.22,0,0,0,0,0,0,.02.03.03.06.05.1,0,0,0,0,0,0,.65,1.35,1.63,2,2.49,2.31h0c-.2,1.44-.97,2.88-2.15,3.73-.36.28-.76.49-1.17.67.1-.69.11-1.37-.06-2.05,0,0,0,0,0,0,.03-.11-.09-.28-.07-.24,0,0,0,0,0,0-.03-.11-.08-.22-.12-.33-.04-.29-.18-.55-.37-.77.26-.13.51-.31.67-.55.08-.12-.04-.27-.17-.23-.89.27-1.53.09-1.62.07-.89-.27-1.24-.98-1.27-1.78ZM9.41,41.74c-.35-.15-1.12-.48-1.94-1-.33-.21-.74-.36-1.17-.31-.32.04-.33-.22-.07-.4.28-.2.3-.59.05-.86-.3-.31-.99-.49-1.15-.56-.16-.08-.16-.13.43-.12.24,0,.64.06.97.25.39.21.66.52.94.71,0,0,0,0,0,0,0,0,0,0,.01,0,.02.01.03.03.05.04.02.01.04.02.05.03,1.6,1.07,3.62,1.54,5.54,1.22,2.86-.79,5.47-2.15,8.46-2.43.24.74.18,1.65.01,2.39-.83.17-2.21.56-3.62,1.22-.93.43-1.74.62-2.09.69-2.26.37-4.41-.07-6.48-.88ZM13.88,60.4c.16-1.13.3-3.4.08-4.09-.3-.95-.84-3.01.02-4.46.87-1.48,1.78-1.33,1.78-1.33-.49.77-.98,1.82-1.29,2.75-.04.11.11.17.17.08.8-1.3,2.68-4.32,3.63-5.43.07-.08.2,0,.17.09-.35,1.18-1.23,3.4-1.65,4.5-.04.1.1.18.16.08.57-.86,1.49-2.54,1.92-3.7.54.67-.13,2.98-1.01,4.69-.05.09.07.18.15.11.95-.93,1.58-2.59,1.58-2.59.08.36.12.73.14,1.1,0,.2-.06.89-.75,2.09-.05.09.06.19.14.12.22-.18.39-.39.52-.59-.28,2.02-1.88,5.59-3.19,7.97-.88-.41-1.74-.87-2.55-1.4ZM23.65,48.73h0s-.06.18-.13.58c0,.03,0,.05-.01.08-.15.95-.35,2.97-.09,6.44.13,1.67-.31,5.38-1.11,7.68-1.63-.21-3.2-.62-4.68-1.2.86-2.07,2.64-6.04,2.84-8.71.18-2.36-.48-3.4-.48-3.4-.1-1.82-.82-2.25-.82-2.25.2-.78-.36-1.28-1.1-.79-.97.66-1.84,2.46-1.84,2.46,0,0-.37-.08-.89.03-.15-3.04,1.42-6.2,4.51-7.05,1.62-.61,3.49-.81,4.91-1.96.82-.63,1.45-1.46,1.87-2.37.22.47.5.91.83,1.32-2.05,1.45-3.38,3.84-3.37,6.54,0,.47.05.93.13,1.37-.24.37-.42.79-.55,1.22ZM26.29,49.77c-.93-.25-1.04.11-.97.28.05.13.1.28,0,.33-.21.1-.33-.34-.09-.77s.83-.72,1.63-.55c.8.16,1.83.77,2.18,1.81.36,1.03-.22,1.13-1.11.81-.71-.25-.76-.43-.68-.55.06-.1.27-.04.35-.27.11-.29-.38-.83-1.32-1.08ZM25.55,48.06c.11-.89.12-1.9.11-2.48,0-.43.27-.82.68-.93.19-.05.4-.04.6.11.68.52.06,2.16-1.39,3.31ZM30.14,60.9c-.98-1.1-3.1-2.52-4.3-3.09-.01,0-.02-.01-.03-.02-.23-.1-.43-.19-.58-.22-.42-1.47-.41-3.21-.37-4.2.04.04.08.08.13.11.1.1.21.19.33.27.79.6,1.78.97,2.86.96.73,0,1.42-.18,2.04-.48-.2.8-.52,2.63.13,4.05.41,0,.65-.15.65-.15,0,0-.17,1.97-.84,2.76ZM31.85,49.65c-.18.03-.35.07-.5.12-.78.24-1.64-.03-2.13-.68-.81-1.07-2.26-1.4-2.26-1.4.66-.82,1.2-1.67,1.57-2.3.32-.54.18-1.23-.32-1.61l-.89-.67c.5-.4,1.1-1.28,2.15-1.72-.05.18-.07.38-.06.6.02.19.24.27.38.14,1.22-1.16,2.63-.82,2.63-.82-.3,2.09,1.36,3.5,1.36,3.5,0,0,1.05.86.85,2.26-.2,1.4-1.11,2.3-2.79,2.58Z"/>
</svg>