<?xml version="1.0" encoding="UTF-8"?>
<svg id="Capa_1" data-name="Capa 1" xmlns="http://www.w3.org/2000/svg" version="1.1" xmlns:xlink="http://www.w3.org/1999/xlink" viewBox="0 0 258 100">
  <defs>
    <style>
      .cls-1 {
        fill: #fff;
      }

      .cls-1, .cls-2, .cls-3, .cls-4 {
        stroke-width: 0px;
      }

      .cls-2 {
        fill: url(#Degradado_sin_nombre);
      }

      .cls-3 {
        fill: #00358e;
      }

      .cls-4 {
        fill: #00a9ce;
      }
    </style>
    <linearGradient id="Degradado_sin_nombre" data-name="Degradado sin nombre" x1="228.8" y1="36.8" x2="228.8" y2="67.9" gradientTransform="translate(0 102) scale(1 -1)" gradientUnits="userSpaceOnUse">
      <stop offset=".2" stop-color="#fff"/>
      <stop offset=".2" stop-color="#f6f8fb"/>
      <stop offset=".3" stop-color="#e0e6f1"/>
      <stop offset=".5" stop-color="#bbc9e1"/>
      <stop offset=".7" stop-color="#88a1ca"/>
      <stop offset=".8" stop-color="#486ead"/>
      <stop offset="1" stop-color="#00358e"/>
    </linearGradient>
  </defs>
  <g>
    <circle class="cls-3" cx="208.7" cy="50" r="43.6"/>
    <path class="cls-2" d="M239.1,57.7l-2.2-3.8c-1-1.8-2-3.5-3.1-5.3,0,0-6.2-10.1-8.3-13.5-.9-1.3-3.4-1.6-4.9.9l-2.7,4.8c3.1,5.4,8.4,14.6,10.5,18.4h0l2,3.5c1.4,2.4,4.4,3.2,6.8,1.8,2.4-1.4,3.2-4.4,1.8-6.8h0Z"/>
    <path class="cls-1" d="M211.4,33.2s-.8,1.1-.9,1.4c-1.9,3.1-13.6,22.6-13.6,22.6-1.4,2.4-.6,5.4,1.8,6.8,2.4,1.4,5.4.6,6.8-1.8l15-26.1c1.6-2.5,4-2.2,4.9-.9-4.6-6.4-10.1-6.6-14.1-1.9h0Z"/>
    <path class="cls-4" d="M197.1,38.1c-2.4-1.4-5.4-.6-6.8,1.8l-10.6,17.8c-1.4,2.4-.6,5.4,1.8,6.8,2.4,1.4,5.4.6,6.8-1.8l10.6-17.8c1.4-2.4.6-5.4-1.8-6.8Z"/>
  </g>
  <g>
    <path class="cls-3" d="M16.6,34.8l7-13.6c.1-.3.3-.5.6-.8.2-.2.6-.4,1-.4h1.3c.2,0,.5,0,.7.3.2.2.3.4.3.7v22.5c0,.3,0,.5-.3.7s-.4.3-.7.3h-1.4c-.3,0-.5,0-.7-.3-.2-.2-.3-.4-.3-.7v-16.5l-5.4,10.5c-.2.3-.4.6-.6.8s-.5.3-.8.3h-1.3c-.3,0-.6,0-.8-.3s-.4-.5-.6-.8l-5.4-10.5v16.5c0,.3,0,.5-.3.7s-.4.3-.7.3h-1.4c-.3,0-.5,0-.7-.3-.2-.2-.3-.4-.3-.7v-22.5c0-.2,0-.5.3-.7.2-.2.4-.3.7-.3h1.3c.4,0,.7.1,1,.4.2.2.4.5.6.8l7,13.6h0Z"/>
    <path class="cls-3" d="M32,33.6c0-1.1.3-2.1.8-3,.4-.9,1-1.7,1.6-2.4.7-.7,1.5-1.2,2.4-1.6.9-.4,2-.6,3.2-.6s2.4.2,3.4.6c1,.4,1.8,1,2.5,1.8s1.2,1.7,1.6,2.8c.4,1.1.6,2.3.6,3.7v.9c0,.3,0,.5-.3.7s-.4.3-.7.3h-12v.2c0,1.6.5,2.8,1.5,3.6.9.8,2.1,1.3,3.4,1.3s2.2-.2,2.9-.5,1.2-.8,1.6-1.2c.2-.2.3-.3.5-.4s.3-.1.6-.1h1.1c.2,0,.5,0,.7.3.2.2.3.4.2.7,0,.4-.3.9-.6,1.4-.3.5-.8,1-1.4,1.4s-1.4.8-2.3,1.1-2,.4-3.2.4-2.2-.2-3.1-.6-1.7-1-2.4-1.7c-.7-.7-1.2-1.5-1.7-2.5-.4-1-.7-2-.8-3.2-.1-1.1-.1-2.1,0-3.2h0ZM35.1,33.7h9.8c0-1.5-.4-2.7-1.3-3.5s-2.1-1.3-3.6-1.3-1.3.1-1.9.3-1.1.5-1.5.9c-.4.4-.8.9-1,1.5s-.4,1.2-.4,1.9c0,0,0,.1,0,.1Z"/>
    <path class="cls-3" d="M61.3,26.3c.3,0,.5,0,.7.3.2.2.3.4.3.7v1.1c0,.3,0,.5-.3.7s-.4.3-.7.3h-2c-2.7,0-4,1.3-4,4v10.2c0,.3,0,.5-.3.7s-.4.3-.7.3h-1.3c-.3,0-.5,0-.7-.3-.2-.2-.3-.4-.3-.7v-16.2c0-.3,0-.5.3-.7s.4-.3.7-.3h1.3c.2,0,.5,0,.7.3.2.2.3.4.3.7v1.1c.5-.7,1-1.2,1.7-1.5.7-.3,1.5-.5,2.5-.5h1.8Z"/>
    <path class="cls-3" d="M67,36.6c0,.9.3,1.7.6,2.4.3.7.7,1.2,1.2,1.6.4.4,1,.7,1.5.9.6.2,1.1.3,1.7.3,1.1,0,2.1-.2,2.9-.6.8-.4,1.4-1.1,1.8-2.1.2-.4.3-.6.5-.8.2-.1.4-.2.6-.2h1.1c.3,0,.5,0,.7.3s.3.4.3.7c0,.6-.2,1.2-.5,1.8-.3.7-.8,1.3-1.5,1.8s-1.5,1-2.4,1.5c-1,.4-2.1.6-3.4.6s-2.4-.2-3.4-.6c-1-.4-1.8-1-2.5-1.7-.7-.7-1.2-1.6-1.6-2.5-.4-1-.6-2-.6-3.1,0-.4,0-.8,0-1.4s0-1,0-1.4c0-1.1.3-2.2.7-3.1.4-1,.9-1.8,1.6-2.5.7-.7,1.5-1.3,2.5-1.7,1-.4,2.1-.6,3.4-.6s2.4.2,3.4.6,1.8.9,2.4,1.5c.7.6,1.2,1.2,1.5,1.9.3.7.5,1.3.5,1.8,0,.3,0,.5-.3.7s-.4.3-.7.3h-1.1c-.3,0-.5,0-.6-.2-.2-.1-.3-.4-.5-.8-.4-1-1.1-1.7-1.8-2.1s-1.7-.6-2.9-.6-1.2.1-1.7.3c-.6.2-1.1.5-1.5.9s-.8,1-1.2,1.6c-.3.6-.5,1.4-.6,2.4,0,.9,0,1.7,0,2.4h0Z"/>
    <path class="cls-3" d="M82.6,39.9c0-.9.2-1.7.6-2.4.4-.7.9-1.3,1.5-1.8.7-.5,1.4-.9,2.3-1.2.9-.3,1.8-.5,2.8-.7l4.9-.8v-.5c0-1.2-.4-2.1-1.2-2.7s-1.8-.9-2.9-.9-1.8.2-2.3.6c-.5.4-1,.8-1.3,1.3-.1.2-.3.3-.4.4-.2,0-.4.1-.7.1h-1.1c-.3,0-.5,0-.7-.3s-.3-.4-.3-.7c0-.5.2-1,.6-1.6.4-.5.8-1,1.5-1.4.6-.4,1.3-.8,2.1-1,.8-.3,1.7-.4,2.6-.4s2,.1,2.9.5c.9.3,1.7.7,2.3,1.3s1.1,1.3,1.5,2.2.5,1.8.5,3v10.6c0,.3,0,.5-.3.7s-.4.3-.7.3h-1.3c-.3,0-.5,0-.7-.3-.2-.2-.3-.4-.3-.7v-1.4c-.2.4-.5.8-1,1.2-.4.3-.9.6-1.5.8s-1.2.4-1.8.5c-.6.1-1.2.2-1.7.2-.9,0-1.7-.1-2.5-.4s-1.4-.6-1.9-1c-.5-.4-.9-.9-1.2-1.5s-.4-1.2-.4-2h0ZM89,41.8c.8,0,1.6-.1,2.3-.4.7-.2,1.3-.6,1.8-1.1s.9-1,1.2-1.6c.3-.6.4-1.3.4-2.1v-.9l-4.1.7c-1.5.2-2.6.6-3.5,1.1s-1.3,1.2-1.3,2,0,.5.2.8c.1.2.3.5.6.7s.6.4,1,.6c.4.1.9.2,1.5.2h0Z"/>
    <path class="cls-3" d="M118.8,43.5c0,.3,0,.5-.3.7s-.4.3-.7.3h-1.3c-.3,0-.5,0-.7-.3-.2-.2-.3-.4-.3-.7v-9.2c0-1.8-.4-3.1-1.3-4s-2.1-1.3-3.6-1.3-2.6.4-3.5,1.3c-.9.9-1.3,2.2-1.3,4v9.2c0,.3,0,.5-.3.7s-.4.3-.7.3h-1.3c-.3,0-.5,0-.7-.3-.2-.2-.3-.4-.3-.7v-16.2c0-.3,0-.5.3-.7s.4-.3.7-.3h1.3c.2,0,.5,0,.7.3.2.2.3.4.3.7v1.1c.4-.6,1.1-1.1,2-1.6.9-.5,2-.8,3.4-.8s2.1.2,3,.5,1.7.9,2.4,1.5c.7.7,1.2,1.5,1.6,2.5.4,1,.6,2.1.6,3.3v9.7h0Z"/>
    <path class="cls-3" d="M128.2,38.3c0,.4,0,.8.1,1.2,0,.4.2.7.4,1,.2.3.5.5.9.6.4.2.9.2,1.5.2h1.9c.3,0,.5,0,.7.3.2.2.3.4.3.7v1.1c0,.3,0,.5-.3.7s-.4.3-.7.3h-2.2c-2,0-3.5-.5-4.4-1.6s-1.4-2.6-1.4-4.5v-9h-2.6c-.3,0-.5,0-.7-.3-.2-.2-.3-.4-.3-.7v-1.1c0-.3,0-.5.3-.7s.4-.3.7-.3h2.6v-5.7c0-.2,0-.5.3-.7s.4-.3.7-.3h1.3c.3,0,.5,0,.7.3.2.2.3.4.3.7v5.7h4.4c.2,0,.5,0,.7.3.2.2.3.4.3.7v1.1c0,.3,0,.5-.3.7s-.4.3-.7.3h-4.4v9h0Z"/>
    <path class="cls-3" d="M140.7,22.6c0,.3,0,.5-.3.7s-.4.3-.7.3h-2c-.3,0-.5,0-.7-.3-.2-.2-.3-.4-.3-.7v-2c0-.2,0-.5.3-.7s.4-.3.7-.3h2c.3,0,.5,0,.7.3.2.2.3.4.3.7v2ZM140.4,43.5c0,.3,0,.5-.3.7s-.4.3-.7.3h-1.3c-.3,0-.5,0-.7-.3-.2-.2-.3-.4-.3-.7v-16.2c0-.3,0-.5.3-.7s.4-.3.7-.3h1.3c.2,0,.5,0,.7.3.2.2.3.4.3.7v16.2Z"/>
    <path class="cls-3" d="M148.6,43.5c0,.3,0,.5-.3.7s-.4.3-.7.3h-1.3c-.3,0-.5,0-.7-.3-.2-.2-.3-.4-.3-.7v-22.9c0-.2,0-.5.3-.7s.4-.3.7-.3h1.3c.2,0,.5,0,.7.3.2.2.3.4.3.7v22.9Z"/>
  </g>
  <path class="cls-3" d="M47.2,54.3c.4,0,.7,0,.8.3.2.2.3.5.5.9l8.5,22c0,0,0,.2,0,.2,0,.3,0,.5-.3.7s-.4.3-.7.3h-2.5c-.5,0-.8,0-1-.3-.2-.2-.3-.4-.4-.6l-1.5-3.9h-11l-1.5,3.9c0,.2-.2.4-.4.6-.2.2-.5.3-1,.3h-2.5c-.3,0-.5,0-.7-.3-.2-.2-.3-.4-.3-.7s0-.2,0-.2l8.5-22c.1-.4.3-.7.5-.9.2-.2.5-.3.8-.3h3.8,0ZM49.2,69.6l-3.8-9.9-3.8,9.9h7.7,0Z"/>
  <path class="cls-3" d="M76.8,77.7c0,.3,0,.5-.3.7s-.4.3-.7.3h-2.7c-.3,0-.5,0-.7-.3-.2-.2-.3-.4-.3-.7v-8.8c0-1.4-.3-2.5-1-3.3-.7-.8-1.7-1.2-3-1.2s-2.2.4-2.9,1.2c-.7.8-1.1,1.9-1.1,3.3v8.8c0,.3,0,.5-.3.7s-.4.3-.7.3h-2.7c-.3,0-.5,0-.7-.3-.2-.2-.3-.4-.3-.7v-16.2c0-.3,0-.5.3-.7s.4-.3.7-.3h2.7c.3,0,.5,0,.7.3.2.2.3.4.3.7v.8c.6-.6,1.3-1.1,2.1-1.5s1.8-.6,2.9-.6,2.6.2,3.6.7c.9.4,1.7,1,2.3,1.8.6.7,1,1.6,1.2,2.6.2,1,.4,2,.4,3.1,0,0,0,9.4,0,9.4Z"/>
  <path class="cls-3" d="M88.3,60.2c.7,0,1.4,0,1.9.2s1.1.3,1.5.5.8.4,1.1.7c.3.2.6.5.7.7v-7.4c0-.2,0-.5.3-.7s.4-.3.7-.3h2.7c.3,0,.5,0,.7.3.2.2.3.4.3.7v22.9c0,.3,0,.5-.3.7s-.4.3-.7.3h-2.7c-.3,0-.5,0-.7-.3-.2-.2-.3-.4-.3-.7v-.8c-.2.2-.4.4-.7.7-.3.2-.7.5-1.1.7s-.9.4-1.5.5-1.2.2-1.9.2c-1.2,0-2.2-.2-3.2-.7s-1.7-1.1-2.4-1.8-1.2-1.6-1.6-2.6c-.4-1-.6-2-.6-3.1,0-.3,0-.8,0-1.2s0-.9,0-1.2c0-1.1.3-2.1.6-3.1.4-1,.9-1.9,1.6-2.6.7-.8,1.5-1.4,2.4-1.8s2-.7,3.2-.7h0ZM85,68.6c0,.7,0,1.3,0,1.9.1,1.5.6,2.6,1.4,3.3s1.8,1,2.9,1,2.1-.3,2.9-1c.8-.7,1.2-1.6,1.3-2.9,0-.3,0-.8,0-1.3s0-1,0-1.3c-.1-1.2-.6-2.2-1.3-2.9s-1.7-1.1-2.9-1.1-2.1.3-2.9,1c-.8.7-1.2,1.8-1.4,3.3Z"/>
  <path class="cls-3" d="M107,53.9c.2,0,.5,0,.7.3.2.2.3.4.3.7v2.7c0,.2,0,.5-.3.7-.2.2-.4.3-.7.3h-3c-.3,0-.5,0-.7-.3-.2-.2-.3-.4-.3-.7v-2.7c0-.2,0-.5.3-.7s.4-.3.7-.3h3ZM107.2,77.7c0,.3,0,.5-.3.7s-.4.3-.7.3h-2.7c-.3,0-.5,0-.7-.3-.2-.2-.3-.4-.3-.7v-16.2c0-.3,0-.5.3-.7s.4-.3.7-.3h2.7c.3,0,.5,0,.7.3.2.2.3.4.3.7v16.2Z"/>
  <path class="cls-3" d="M128.9,77.7c0,.3,0,.5-.3.7s-.4.3-.7.3h-2.6c-.3,0-.5,0-.7-.3-.2-.2-.3-.4-.3-.7v-8.8c0-1.4-.3-2.5-1-3.3s-1.6-1.2-3-1.2-2.2.4-2.9,1.2c-.7.8-1.1,1.9-1.1,3.3v8.8c0,.3,0,.5-.3.7s-.4.3-.7.3h-2.6c-.3,0-.5,0-.7-.3-.2-.2-.3-.4-.3-.7v-16.2c0-.3,0-.5.3-.7s.4-.3.7-.3h2.6c.3,0,.5,0,.7.3.2.2.3.4.3.7v.8c.6-.6,1.3-1.1,2.1-1.5s1.8-.6,2.9-.6,2.6.2,3.6.7,1.7,1,2.3,1.8c.6.7,1,1.6,1.2,2.6.2,1,.4,2,.4,3.1v9.4h0Z"/>
  <path class="cls-3" d="M133.3,65c0-.5.3-1,.6-1.6.3-.6.8-1.1,1.4-1.6s1.4-.9,2.3-1.2c.9-.3,1.9-.5,3.1-.5s2.2.2,3.2.5c.9.3,1.8.8,2.5,1.4.7.6,1.2,1.4,1.6,2.3.4.9.6,2,.6,3.2v10.2c0,.3,0,.5-.3.7s-.4.3-.7.3h-2.6c-.3,0-.5,0-.7-.3-.2-.2-.3-.4-.3-.7v-1.2c-.5.7-1.2,1.2-2.1,1.7s-2.1.7-3.5.7-1.9-.1-2.7-.4c-.8-.3-1.4-.6-2-1.1-.5-.5-.9-1.1-1.2-1.7-.3-.7-.4-1.4-.4-2.2,0-1.6.6-2.9,1.7-3.8,1.1-.9,2.7-1.5,4.6-1.8l5.7-1c0-.9-.3-1.6-.9-2s-1.4-.6-2.3-.6-1,0-1.4.2c-.3.2-.6.4-.9.7-.2.2-.4.3-.6.4s-.4.1-.6.1h-3.2c-.2,0-.4,0-.6-.2s-.2-.3-.2-.6h0ZM139.1,74.8c.8,0,1.5-.1,2.1-.3s1.1-.5,1.6-.9.7-.8.9-1.2.3-.9.3-1.4v-.3l-4.7.8c-.9.2-1.6.4-2.1.7s-.6.7-.6,1.3.2.8.8,1.1,1.1.3,1.8.3h0Z"/>
</svg>