<?xml version="1.0" encoding="UTF-8"?>
<svg id="Capa_1" data-name="Capa 1" xmlns="http://www.w3.org/2000/svg" version="1.1" viewBox="0 0 198.4 81.3">
  <defs>
    <style>
      .cls-1 {
        fillRule: evenodd;
      }

      .cls-1, .cls-2 {
        fill: #c3360e;
        stroke-width: 0px;
      }
    </style>
  </defs>
  <polygon class="cls-2" points="26.5 46.6 32.2 58.2 37.8 46.6 46.4 46.6 46.4 69.7 37.8 69.7 37.8 58.2 32.2 69.7 26.5 58.2 26.5 69.7 17.9 69.7 17.9 46.6 26.5 46.6"/>
  <path class="cls-2" d="M49.1,69.7l6.7-23.2h15.1l6.7,23.2h-8.6l-1.1-3.8h-9.1l-1.1,3.8h-8.6ZM63.3,50h0l-3.5,12.1h6.9l-3.5-12.1Z"/>
  <path class="cls-1" d="M96.3,46.6c3.7.1,6.6,3.3,6.5,7-.1,3.5-3,6.4-6.5,6.5h-7.5v9.7h-8.6v-23.2h16ZM90.8,49.2h-1.8v6.9h1.8c2.1,0,3.8-1.6,3.8-3.7,0,0,0,0,0,0,0-2.1-1.9-3.1-3.8-3.1Z"/>
  <polygon class="cls-2" points="106 46.6 128.7 46.6 128.7 50.4 114.5 50.4 114.5 56.3 128.7 56.3 128.7 60.1 114.5 60.1 114.5 69.7 106 69.7 106 46.6"/>
  <polygon class="cls-2" points="166.3 65.9 180.4 65.9 180.4 69.7 157.7 69.7 157.7 46.6 180.4 46.6 180.4 50.4 166.3 50.4 166.3 56.3 180.4 56.3 180.4 60.1 166.3 60.1 166.3 65.9"/>
  <path class="cls-1" d="M154.5,64v5.8h-8.4v-5.8c0-2.1-1.7-3.8-3.8-3.8h-1.9v9.6h-8.7v-23.2h17c3.2,0,5.8,2.6,5.8,5.8,0,3.2-2.6,5.8-5.8,5.8,3.1,0,5.7,2.5,5.8,5.6v.2ZM154.5,63.8h0ZM142.3,49.2h-1.9v6.9h1.9c2.1,0,3.8-1.7,3.8-3.8,0-2.1-1.9-3.1-3.8-3.1Z"/>
  <path class="cls-1" d="M99.2,11.5c6.4,0,11.6,5.2,11.6,11.6s-5.2,11.6-11.6,11.6-11.6-5.2-11.6-11.6h0c0-6.4,5.2-11.6,11.6-11.6ZM99.2,12.6h0c-5.8,0-10.5,4.7-10.5,10.5s4.7,10.5,10.5,10.5c5.8,0,10.5-4.7,10.5-10.5h0c0-5.8-4.7-10.5-10.5-10.5h0ZM99.8,25.4h5.3c.3,0,.7,0,.9-.2.6-.3.9-.9.9-1.6,0,0,0-.2,0-.2-.1-.8-.4-1.5-.8-2.2-.4-.7-1-1.3-1.6-1.9-.4-.3-.9-.4-1.4-.3-.2-.5-.6-1-1.1-1.2-1.8-.6-3.7-.6-5.5,0,0,0-.2,0-.2.1-.4.2-.8.6-.9,1.1-.5,0-1,0-1.5.3-.6.5-1.1,1.1-1.5,1.8-.4.7-.7,1.4-.8,2.2,0,0,0,.2,0,.2,0,.6.3,1.2.9,1.6.3.2.6.2.9.2h5.3v3.6h1.1v-3.6h0ZM103.8,20.2h0c-.2-.1-.4-.1-.6,0-.1,0-.2.2-.2.3l-1.9,3.3c0,.1,0,.3,0,.4,0,0,.1,0,.2,0h3.9c.1,0,.2,0,.3,0,.2-.1.3-.3.3-.5-.1-.7-.3-1.3-.7-1.9-.3-.6-.8-1.1-1.3-1.5h0ZM94.6,20.2h0c-.5.4-.9.9-1.2,1.5-.3.6-.6,1.2-.7,1.9,0,.2,0,.4.3.5,0,0,.2,0,.3,0h3.8c.2,0,.3-.1.3-.3,0,0,0-.1,0-.2l-1.9-3.3c0-.1-.1-.2-.2-.3-.2-.1-.4-.1-.6,0h0ZM101.6,18.9h0c-.8-.3-1.6-.4-2.4-.4-.8,0-1.6.2-2.4.4-.2.1-.4.4-.4.7,0,.1,0,.3.1.4l2.4,4.1c0,.2.3.2.5.2,0,0,.1,0,.2-.2l2.4-4.1c0-.1.1-.3.1-.4,0-.3-.2-.6-.4-.7h0Z"/>
</svg>