<?xml version="1.0" encoding="UTF-8"?>
<svg id="Capa_1" data-name="Capa 1" xmlns="http://www.w3.org/2000/svg" version="1.1" viewBox="0 0 429 210.8">
  <defs>
    <style>
      .cls-1 {
        fill: #009ade;
      }

      .cls-1, .cls-2 {
        stroke-width: 0px;
      }

      .cls-2 {
        fill: #006098;
      }
    </style>
  </defs>
  <path class="cls-2" d="M71.8,101.4l-1.6,12.6H27.7l9.5-67.7h38.9l-1.6,12.6h-22.2l-2.1,14.6h21.8l-1.7,12.5h-21.9l-2.2,15.4h25.7Z"/>
  <path class="cls-2" d="M171.4,46.3c7.8,0,13.7,1.9,17.9,5.7,4.2,3.8,6.1,9.1,5.7,16,0,3.5-1,6.9-2.7,9.9-1.6,2.7-3.7,5.1-6.3,7-2.6,1.9-5.6,3.3-8.8,4.2-3.3.9-6.8,1.4-10.2,1.3-.9,0-2,0-3.2,0s-2.3-.1-3.3-.2l-3.4,24h-16.6l9.4-67.7h21.6ZM162.1,77.5c.9.1,1.9.2,2.9.2,1,0,1.8,0,2.6,0,2.6,0,5.2-.8,7.3-2.4,2-1.5,3.1-4,3.3-7.3.3-2.4-.4-4.8-1.9-6.7-1.5-1.8-3.8-2.7-6.9-2.7-.9,0-1.8,0-2.7.2-.8.1-1.4.3-1.9.4l-2.6,18.1Z"/>
  <path class="cls-2" d="M238.1,101.4l-1.6,12.6h-42.5l9.5-67.8h38.9l-1.6,12.6h-22.2l-2.1,14.6h21.8l-1.8,12.6h-21.9l-2.2,15.4h25.7Z"/>
  <path class="cls-2" d="M273.3,46.3c3,0,6.1.3,9,1.1,2.5.6,4.9,1.8,6.9,3.3,1.9,1.6,3.4,3.6,4.3,5.9,1,2.8,1.5,5.7,1.4,8.6,0,2.3-.5,4.5-1.5,6.6-.9,1.9-1.9,3.7-3.2,5.4-1.2,1.5-2.5,3-4,4.2-1.2,1-2.5,2-3.8,2.8l13.5,29.7h-18.8l-9.5-23.2h-8.1l-3.2,23.2h-16.6l9.5-67.7h24.1ZM261.3,78.7h10.8c2.9-2.7,4.8-6.4,5.4-10.3.3-3.1-.3-5.4-1.7-7.1-1.6-1.7-3.9-2.5-6.3-2.4-1.1,0-2.2,0-3.2.2-.7,0-1.5.3-2.2.5l-2.8,19.1Z"/>
  <path class="cls-2" d="M350.8,58.8h-17.9l-7.7,55.2h-16.7l7.7-55.1h-18.1l1.7-12.6h52.7l-1.7,12.5Z"/>
  <path class="cls-2" d="M379.9,96.5h-22.4l-8.9,17.5h-16.1l35.9-67.7h16.9l16.2,67.7h-17.6l-3.9-17.5ZM363.1,84.7h13.9l-4.2-19.6-9.7,19.6Z"/>
  <polygon class="cls-1" points="100.6 46.3 81.8 46.3 98.4 76.9 108.5 61 100.6 46.3"/>
  <polygon class="cls-1" points="118.5 114 136.8 114 119.5 81.6 109.4 97.2 118.5 114"/>
  <polygon class="cls-1" points="120.9 46.3 110 63.7 99.9 79.7 67.3 131.4 67.3 157.4 107.9 94.4 118 78.8 139 46.3 120.9 46.3"/>
  <path class="cls-1" d="M99.5,135c-.5,6,4.1,9.2,8.9,11.6,5,2.5,7.5,4.6,7.2,8.7-.3,3.5-3.4,6-9.6,6-3.1,0-6.1-.9-8.6-2.6l-1.8,3.3c3.1,1.7,6.6,2.6,10.2,2.6,7.7,0,13.4-3.3,13.9-10,.4-6.1-3.9-9-9.2-11.7-4.2-2.2-7.3-4.1-6.9-8.3.3-3.6,3.7-5.9,9-5.9,3,0,5.9.9,8.4,2.4l1.7-3.3c-3.1-1.6-6.5-2.4-10-2.4-7.1,0-12.6,3.4-13.2,9.6Z"/>
  <polygon class="cls-1" points="126.2 163.8 147.5 163.8 147.9 160.5 130.8 160.5 132.9 146.1 147.4 146.1 147.9 142.9 133.3 142.9 135.2 129.5 150.2 129.5 150.6 126.2 131.5 126.2 126.2 163.8"/>
  <path class="cls-1" d="M174.7,128.9c4,0,7.9,1.4,11,4l2.5-3.2c-3.8-2.9-8.5-4.4-13.3-4.3-12.4,0-20.2,9-20.9,19.3s6.1,19.9,18.7,19.9c4,0,8-.8,11.6-2.4l2.5-18.1h-10.2l-1.4,3h7.1l-1.7,12.5c-2.4,1.1-5.1,1.7-7.7,1.6-9.4,0-15.2-7.1-14.5-16.6.8-8.9,7.1-15.7,16.4-15.7Z"/>
  <path class="cls-1" d="M217.6,150.1c-.9,6.8-4.7,11.2-11.2,11.2s-10.1-4.4-9.3-11.2l3.4-23.9h-4.2l-3.3,23.5c-1.1,8.3,3.8,14.9,13.1,14.9s14.6-6.2,15.8-14.9l3.3-23.5h-4.2l-3.4,23.9Z"/>
  <path class="cls-1" d="M254.7,136c.3-6.5-4-9.8-10.9-9.8h-10.1l-5.3,37.6h4.2l2.1-15.5h8.5l7.3,15.5h4.7l-8.1-17c3.2-1.8,7.3-5.2,7.6-10.8ZM235.1,145.1l2.2-15.3c1.8-.3,3.6-.4,5.5-.4,5,0,7.8,2.5,7.6,7.1-.2,4.2-3.5,7.2-6,8.5h-9.2Z"/>
  <path class="cls-1" d="M280.4,125.4c-11.5,0-19.6,8.5-20.3,19.6-.7,10.9,6.5,19.6,17.5,19.6s19.5-8.5,20.2-19.6c.7-10.8-6.4-19.6-17.4-19.6ZM293.4,145c-.7,10.1-7.4,16.3-15.7,16.3s-13.8-6.3-13.1-16.3,7.2-16.3,15.6-16.3c8.1,0,13.8,6.3,13.2,16.3h0Z"/>
  <path class="cls-1" d="M317.5,128.7c3,0,5.9.9,8.4,2.4l1.7-3.3c-3.1-1.6-6.5-2.4-10-2.4-7,0-12.6,3.4-13.1,9.6-.5,6,4.1,9.2,8.9,11.6,5,2.5,7.5,4.6,7.2,8.7-.3,3.5-3.4,6-9.5,6-3.1,0-6.1-.9-8.6-2.6l-1.9,3.3c3.1,1.7,6.6,2.6,10.2,2.6,7.7,0,13.4-3.3,13.9-10,.4-6.1-3.9-9-9.2-11.7-4.2-2.2-7.3-4.1-6.9-8.3.3-3.6,3.7-5.9,9-5.9Z"/>
</svg>