<?xml version="1.0" encoding="UTF-8"?>
<svg id="ZURICH_LOGO_CMYK_HORIZONTAL" data-name="ZURICH LOGO CMYK HORIZONTAL" xmlns="http://www.w3.org/2000/svg" version="1.1" viewBox="0 0 721.4 232.9">
  <defs>
    <style>
      .cls-1 {
        fill: #2167ae;
        stroke-width: 0px;
      }
    </style>
  </defs>
  <g id="ZURICH_LOGO" data-name="ZURICH LOGO">
    <path class="cls-1" d="M92.6,35.9c-44.4,0-80.5,36-80.5,80.5h0c0,18.4,6.2,35.3,16.5,48.8l66.9-87.9h-14.3c-7.6,0-14.8.5-20,1.5-3.1.6-5.9,1.7-8.2,3.3-2.7,1.9-6,5.8-8.2,9.7-.2.5-.6,1.1-1.1,2.1l-3.9-.9,6.6-25.2h83.8l-66.6,89c4.3-.4,6.1-.5,9.6-.5s6.8.2,12.3.5l11.8.7c4.3.2,7.9.4,10.6.4,6.1,0,10.1-.5,14-1.7,3.1-.9,5.9-2.3,8.6-4.1,4.7-3.2,9.2-8.4,11.9-13.6.3-.5.7-1.3,1.2-2.4l3.6.9c-1.2,4.4-1.8,6.1-3.5,10-3.6,8-7.6,13.3-13.2,17.4-5.7,4.2-12,6.3-19.5,6.4h-1.1c-5.5,0-9.8-.5-23.1-2.5-13.5-2.1-20.3-2.8-27.1-2.8s-8.7.3-13.1,1.1c-5.8.9-8.1,1.6-13.3,4,14.7,16,35.8,26.1,59.3,26.1,44.4,0,80.5-36,80.5-80.5s-36-80.5-80.5-80.5h0Z"/>
    <path class="cls-1" d="M507,91.8c0-5.2.2-6.7.8-8.8.3-.9.7-1.7,1.1-2.4.8-1.3,1.4-2,2.9-3.3h-25.2c1.6,1.4,2.2,2,2.9,3.1.5.8.9,1.7,1.2,2.6.6,1.9.8,3.8.8,8.4,0,2.4,0,4,0,4.7v46.9c0,2.8-.5,5.7-1.2,7.6-.3.8-.7,1.6-1.3,2.3-.6.9-1,1.3-2.4,2.8h24.9c-1.2-1.1-1.7-1.5-2.4-2.8-.5-.8-.9-1.6-1.2-2.4-.7-1.8-1.1-4.4-1.1-6.9v-51.9s0,0,0,0Z"/>
    <path class="cls-1" d="M674.5,91.8c0-3.5.3-6.1.9-8.3.3-1,.7-2,1.2-2.9.8-1.3,1.4-2,3.1-3.3h-25.6c1.5,1.2,2,1.8,2.9,3.2.6.9,1,1.8,1.3,2.7.6,1.9.8,4.1.8,8.3v19h-35.1v-14.3c0-4.3,0-7.2.2-9.3,0-1.3.3-2.4.6-3.4.5-1.7,2-4,3.2-5.4.2-.2.5-.5.9-.9h-25.1c1.5,1.5,1.9,2,2.6,3,.5.8,1,1.7,1.4,2.7.7,2,.8,3.1.9,8.3v5c0,0,0,42.9,0,42.9,0,4.3,0,6.3-.3,8.3-.1,1-.4,2.1-.8,3.1-.7,1.7-1.6,3-3,4.4-.2.2-.5.4-.9.8h24.8c-1.1-1.1-1.5-1.6-2.1-2.6-.5-.7-.9-1.5-1.3-2.4-.8-2.1-1-3.6-1.2-6.9,0-1.7,0-3.2,0-4.7v-19h35.1v19.1c0,4.2,0,5.8-.4,8-.1,1.2-.4,2.3-.8,3.4-.6,1.5-1.5,2.8-2.8,4.1-.2.2-.6.6-1.1,1h25c-1-1-1.4-1.5-2.1-2.4-.6-.9-1.1-1.7-1.5-2.6-.8-1.9-.9-3.2-1-7.1,0-2.3,0-3.6,0-4.1v-43.1c0,0,0-4.6,0-4.6h0Z"/>
    <path class="cls-1" d="M474.2,150.3c-2.8-2.6-5.2-5.1-8.9-9.1-2.3-2.5-4.2-4.6-5.7-6.4l-12.2-14.3c1.5-.4,2.1-.7,3.5-1.2,4-1.6,7-3.3,9.7-5.6,3.1-2.6,5-5.4,6.2-9,.7-2,1-4,1-6,0-4.8-1.8-9.2-5.3-12.9-3.2-3.4-7.7-5.9-12.7-7.1-3.5-.8-7.2-1.2-13.4-1.4-2.4,0-4.8,0-7.3,0h-20.2c1.4,1.3,1.9,1.8,2.6,3,.6.9,1.1,1.9,1.4,2.9.5,1.8.7,4.2.7,8.4v51.5c0,3.7-.2,5.9-.9,7.6-.4.9-.8,1.7-1.4,2.5-.7.9-1.2,1.4-2.6,2.7h24.9c-1.1-1.2-1.5-1.6-2.2-2.6-.5-.7-1-1.6-1.3-2.4-.7-1.7-1-3.6-1-7.2,0-1.2,0-2.5,0-3.9v-17.6l14.5,17.4c.7.8,1.8,2.1,3.2,3.8,1.7,1.9,3,3.3,3.9,4.2,2.8,2.9,5.5,5,8.1,6.4,2.3,1.2,4.4,1.7,7.8,1.8,1.3,0,2.6,0,4.1,0h9.8c-1.3-1-1.9-1.5-2.9-2.4-1.1-.9-2.2-1.9-3.4-3.1h0ZM444.2,111.8c-2.8,1.6-5.7,2.6-9.9,3.2-1.6.2-3,.4-4.1.4s-.7,0-1.3,0v-29c1,0,1.4,0,2.1,0,3.8,0,7.6.5,10.5,1.3,2,.6,3.8,1.5,5.3,2.8,2.6,2.3,4,5.5,4,9.6s-1,6.6-3.1,8.9c-1,1.1-2.2,2.1-3.7,2.9h0Z"/>
    <path class="cls-1" d="M582.2,144.4c-4.7,2-9,2.9-13.7,2.9-8.1,0-15.1-2.9-20.2-8.4-5.1-5.5-7.8-13.1-7.8-21.7s2.5-15.8,7.1-21.2c2-2.3,4.4-4.3,7.1-5.8,4.4-2.5,9.6-3.8,15.2-3.8s9.4.9,14.1,2.8c2.9,1.2,4,1.8,6.4,3.5v-14.7c-1.9-.6-2.7-.8-4.8-1.3-4.5-1-8.9-1.4-13.8-1.4-8.4,0-15.7,1.4-22.3,4.2-4,1.7-7.6,3.8-10.8,6.4-9.7,7.8-14.9,19.1-14.9,32s5.1,23.5,14.3,30.8c7.6,6,17.5,9.1,29.3,9.1s14.3-1.1,22-3.5c.3,0,.7-.2,1.3-.4v-14.2c-1.9,1.2-2.5,1.7-3.7,2.3-1.5.9-3.1,1.7-4.8,2.4h0Z"/>
    <path class="cls-1" d="M373.7,80.3c.5.8.9,1.7,1.2,2.7.5,1.9.7,3.8.7,8.2v29.8c0,6.4-.2,10.2-.7,13.3-.3,2.1-1,4-2,5.7-1.9,3.2-5.4,5.6-9.6,6.7-1.7.4-3.6.6-5.6.6-6.7,0-12.5-2.5-15.3-6.6-2.2-3.2-2.8-6.2-2.9-14.3v-6.5s0-23.6,0-23.6c0-4.6,0-6.8.2-9.1,0-1.4.3-2.6.6-3.6.5-1.8,1.9-4.2,3.1-5.7.2-.2.4-.4.7-.7h-25.5c1.6,1.3,2.1,1.9,2.8,3.2.5.9.9,1.8,1.1,2.7.3,1.2.5,2.4.5,3.6,0,.8,0,2.4,0,4.9v4.5s0,22.5,0,22.5c0,8.3,0,10.5.3,13.8.5,5.7,2.2,10.3,5.5,14.5,5.9,7.5,15.5,11.4,27.7,11.4s11.5-.9,15.8-2.5c4.5-1.7,8.7-4.5,11.7-7.8,3.6-4.1,5.7-9.1,6.3-15.2.4-3.6.5-7.9.5-14v-27c0,0,0-.9,0-.9,0-3.4.2-5.3.7-7.2.3-1.1.7-2.2,1.4-3.2.8-1.3,1.4-2,3.1-3.3h-25c1.5,1.2,2.1,1.8,2.8,3h0Z"/>
    <path class="cls-1" d="M287.7,144.7c-3.5.6-7.4,1-12.3,1.1-1.7,0-3.7,0-6.3,0h-12l47.5-68.5h-61.7l-7.6,16.7c2.5-1.4,3.5-1.8,5.7-2.7,3.5-1.4,7.4-2.5,11.1-3.1,3.2-.6,6.2-.8,11-1,2.2,0,4.2-.1,6.1-.1h9.1l-48,68.6h67.8l7.8-17.9c-2.7,1.6-3.7,2.1-5.8,3-4,1.8-8.2,3.1-12.7,3.8h0Z"/>
    <path class="cls-1" d="M700.4,47.7c-4.9,0-8.9,3.6-8.9,8.9s4,8.9,8.9,8.9,8.9-3.6,8.9-8.9-4-8.9-8.9-8.9ZM700.4,64.2c-4.2,0-7.4-3.1-7.4-7.6s3.3-7.6,7.4-7.6,7.4,3,7.4,7.6-3.2,7.6-7.4,7.6Z"/>
    <path class="cls-1" d="M704.3,54.5c0-2.4-1.7-2.9-4.4-2.9h-2.8v9.4h1.4v-3.7h2.5c0,0,.2,0,.3,0l2,3.7h1.6l-2.1-4c1.2-.5,1.8-1.5,1.8-2.6h0ZM700.6,56h-2.1v-3h2c1.4,0,2.4.3,2.4,1.5s-.7,1.5-2.3,1.5h0Z"/>
  </g>
</svg>