<?xml version="1.0" encoding="UTF-8"?>
<svg id="Capa_1" data-name="Capa 1" xmlns="http://www.w3.org/2000/svg" version="1.1" viewBox="0 0 1920 708.8">
  <defs>
    <style>
      .cls-1 {
        fill: #a80456;
        fillRule: evenodd;
        stroke-width: 0px;
      }
    </style>
  </defs>
  <g id="Layer1">
    <g id="Capa_1-2" data-name="Capa 1">
      <path class="cls-1" d="M233.3,127c111.5,0,204.6,81.4,223.2,188.1h-157.4s-28.2-62.5-28.2-62.5l-36.6-85.4-36.6,85.4-36.6,85.4h298.2c.4,5.4.6,10.9.6,16.5,0,125.2-101.8,227.3-226.6,227.3S29.7,501.1,10.4,395.3l155.2.5,31.6,61.5,36.6,78.6,36.6-78.6,36.6-78.6H8c-.9-8-1.3-16.1-1.3-24.4,0-125.2,101.8-227.4,226.6-227.4"/>
      <path class="cls-1" d="M1835.6,185.7c0-4.8-.9-9-2.8-12.5-1.8-3.5-4.9-6.2-9.2-8.1-3-1.3-6.4-2.1-10.1-2.4-3.7-.3-8.3-.5-13.8-.5h-16.1v51.7h13.8c6.7,0,12.4-.4,17.1-1.2,4.7-.8,8.7-2.5,12-5.2,3.1-2.4,5.4-5.3,6.9-8.7,1.5-3.3,2.3-7.7,2.3-13.1M1913.3,319.1h-58.9l-53.5-70.5h-17.4v70.5h-48V126.8h77.3c10.7,0,20,.7,27.8,2,7.9,1.4,15.3,4.1,21.9,8.3,6.9,4.4,12.4,10,16.4,16.7,4.1,6.7,6.1,15.3,6.1,25.7,0,14.7-3.3,26.7-9.9,35.8-6.7,9.2-15.5,16.4-26.6,21.9l64.7,81.8h0ZM1626,222.9c0-11.5-1.2-21.3-3.6-29.3-2.3-8.1-5.5-14.7-9.5-19.8-4.1-5.2-8.8-9-14-11.3-5.2-2.3-10.6-3.4-16.2-3.4s-11.3,1-16.1,3.2c-4.8,2.1-9.5,5.9-13.9,11.3-4,5-7.2,11.6-9.6,19.9-2.5,8.3-3.7,18.2-3.7,29.6s1.1,21.6,3.5,29.4c2.3,7.8,5.5,14.3,9.6,19.6,4.1,5.3,8.8,9.2,14.1,11.4,5.2,2.3,10.7,3.4,16.3,3.4s11.2-1.2,16.6-3.7c5.3-2.4,9.9-6.3,13.8-11.4,4.1-5.6,7.3-12.1,9.6-19.6,2.2-7.4,3.3-17.2,3.3-29.2M1675.8,223c0,31.1-8.3,55.5-24.9,73.4-16.6,17.8-39.4,26.7-68.3,26.7s-51.8-9-68.3-27.1c-16.5-18-24.8-42.3-24.8-73s8.3-55.3,24.8-73.2c16.5-17.9,39.3-26.9,68.3-26.9s51.7,8.9,68.3,26.8c16.6,17.9,24.9,42.3,24.9,73.4M1365.3,322.8c-28.8,0-51.7-8.7-68.7-26.1-17-17.5-25.4-42-25.4-73.6s8.5-54.7,25.5-72.9c17-18.1,39.9-27.2,68.8-27.2s14.6.4,20.7,1.3c6.1.9,12,2.1,17.6,3.6,4.4,1.3,9.2,3.1,14.3,5.3,5.2,2.2,9.3,4.2,12.5,5.8v45.8h-4.9c-2.3-2.1-5.3-4.5-8.8-7.4-3.5-2.9-7.5-5.7-12-8.5-4.5-2.8-9.4-5.1-14.8-7.1-5.4-1.9-11-2.9-16.8-2.9s-13.3,1.1-19.2,3.3c-5.8,2.2-11.4,6-16.6,11.4-4.8,4.9-8.8,11.5-11.8,19.9-3,8.4-4.6,18.2-4.6,29.6s1.6,22,4.8,30.2c3.2,8.1,7.4,14.7,12.6,19.7,5,4.9,10.5,8.3,16.7,10.5,6.2,2.2,12.3,3.2,18.4,3.2s12.4-1.1,18.2-3.2c5.8-2.1,10.6-4.4,14.6-7,4.3-2.7,8.1-5.4,11.4-8.2,3.3-2.8,6.1-5.2,8.5-7.4h4.4v45.2c-3.5,1.6-7.6,3.5-12.3,5.6-4.7,2.1-9.4,3.9-14.4,5.3-6,1.8-11.6,3.2-16.9,4.1-5.3.9-12.5,1.4-21.7,1.4M1209.6,319.1h-46.5l-74.1-134v134h-44.2V126.8h59.3l61.3,110.1v-110.1h44.2v192.3ZM903.7,244.9l-19.6-63.3-19.6,63.3h39.3,0ZM793.4,319.1l65-192.3h52.7l65,192.3h-49.7l-12.1-39.3h-60.3l-12,39.3h-48.4ZM653.7,322.6c-14.7,0-27.6-1.4-38.8-4.3-11.2-2.8-21.5-6.3-31.1-10.6v-45.7h4.4c9.6,8.2,20.3,14.5,31.9,18.9,11.6,4.4,22.9,6.6,33.8,6.6s6.4-.3,10.9-.9c4.5-.6,8.1-1.6,10.9-2.9,3.4-1.4,6.2-3.5,8.6-6.1,2.3-2.6,3.5-6.1,3.5-10.4s-1.9-8.7-5.7-11.7c-3.8-3-8.3-5.2-13.6-6.6-6.5-1.7-13.5-3.3-21-4.9-7.4-1.5-14.4-3.4-20.8-5.7-14.9-5.2-25.6-12.3-32-21.2-6.5-8.9-9.7-20-9.7-33.3s7.6-32.6,22.9-43.7c15.2-11.2,34.2-16.7,57.1-16.7s22.8,1.2,34.2,3.5c11.3,2.3,21.5,5.5,30.4,9.4v43.9h-4.3c-7.1-6.1-15.9-11.3-26.1-15.5-10.3-4.2-20.9-6.3-31.7-6.3s-8,.3-11.4.9c-3.4.6-6.9,1.8-10.6,3.5-3,1.4-5.6,3.4-7.8,6.1-2.2,2.7-3.3,5.7-3.3,9.1,0,4.9,1.8,8.8,5.2,11.7,3.5,2.9,10.2,5.5,20.2,7.8,6.5,1.5,12.7,2.9,18.7,4.3,6,1.4,12.4,3.3,19.2,5.7,13.4,4.8,23.3,11.3,29.8,19.4,6.5,8.1,9.7,18.9,9.7,32.2,0,19.1-7.5,34.5-22.5,46.1-15,11.6-35.3,17.4-60.9,17.4"/>
      <path class="cls-1" d="M1827.9,585.4c-14.7,0-27.6-1.4-38.8-4.3-11.1-2.8-21.5-6.3-31.1-10.6v-45.7h4.4c9.6,8.2,20.3,14.5,31.9,18.9,11.6,4.4,22.9,6.6,33.9,6.6s6.4-.3,10.9-.9c4.5-.6,8.1-1.6,10.9-2.9,3.4-1.4,6.2-3.5,8.5-6.1,2.3-2.6,3.5-6.1,3.5-10.4s-1.9-8.7-5.7-11.7c-3.8-3-8.3-5.2-13.6-6.6-6.5-1.7-13.5-3.3-21-4.9-7.4-1.5-14.4-3.4-20.8-5.7-14.9-5.2-25.6-12.3-32.1-21.2-6.5-8.9-9.7-20-9.7-33.3s7.6-32.6,22.9-43.7c15.2-11.2,34.2-16.7,57.1-16.7s22.8,1.2,34.2,3.5c11.3,2.3,21.5,5.5,30.4,9.4v43.9h-4.3c-7.1-6.1-15.9-11.3-26.1-15.5-10.3-4.2-20.9-6.3-31.7-6.3s-8,.3-11.4.9c-3.3.6-6.9,1.8-10.6,3.5-3,1.4-5.6,3.4-7.8,6.1-2.2,2.7-3.3,5.7-3.3,9.1,0,4.9,1.8,8.8,5.2,11.7,3.5,2.9,10.2,5.5,20.2,7.8,6.5,1.5,12.7,2.9,18.7,4.3,6,1.4,12.4,3.3,19.2,5.7,13.4,4.8,23.3,11.3,29.8,19.4,6.5,8.1,9.7,18.9,9.7,32.2,0,19.1-7.5,34.5-22.5,46.1-15,11.6-35.4,17.4-60.9,17.4M1680.8,485.8c0-11.5-1.2-21.3-3.6-29.3-2.3-8.1-5.5-14.7-9.5-19.8-4.1-5.2-8.8-9-14-11.3-5.2-2.3-10.6-3.4-16.2-3.4s-11.3,1-16.1,3.2c-4.8,2.1-9.5,5.9-13.9,11.3-4,5-7.2,11.6-9.6,19.9-2.5,8.3-3.7,18.2-3.7,29.6s1.1,21.6,3.5,29.4c2.3,7.8,5.5,14.3,9.6,19.6,4.1,5.3,8.8,9.2,14.1,11.4,5.2,2.3,10.7,3.4,16.3,3.4s11.2-1.2,16.6-3.7c5.3-2.4,9.9-6.3,13.8-11.4,4.1-5.6,7.3-12.1,9.6-19.6,2.2-7.4,3.3-17.2,3.3-29.2M1730.6,485.9c0,31.1-8.3,55.5-24.9,73.4-16.6,17.8-39.4,26.7-68.3,26.7s-51.8-9-68.3-27.1c-16.5-18-24.8-42.3-24.8-73s8.3-55.3,24.8-73.2c16.5-17.9,39.3-26.9,68.3-26.9s51.7,8.9,68.3,26.8c16.6,17.9,24.9,42.3,24.9,73.4M1454.3,448.6c0-4.8-.9-9-2.8-12.5-1.8-3.5-4.9-6.2-9.2-8.1-3-1.3-6.4-2.1-10.1-2.4-3.7-.3-8.3-.5-13.8-.5h-16.1v51.7h13.8c6.7,0,12.4-.4,17.1-1.2,4.7-.8,8.7-2.5,12-5.2,3.1-2.4,5.4-5.3,6.9-8.7,1.5-3.3,2.3-7.7,2.3-13.1M1532,581.9h-58.9l-53.5-70.5h-17.4v70.5h-48v-192.3h77.3c10.7,0,20,.7,27.8,2,7.9,1.4,15.3,4.1,21.9,8.3,6.9,4.4,12.4,10,16.4,16.7,4.1,6.7,6.1,15.3,6.1,25.7,0,14.7-3.3,26.7-9.9,35.8-6.7,9.2-15.5,16.4-26.6,21.9l64.7,81.8h0ZM1227.2,585.9c-25.8,0-45.7-6.3-59.6-18.7-13.9-12.5-20.8-30.7-20.8-54.7v-122.8h48.3v120c0,13.3,2.5,23.3,7.5,29.8,5,6.6,13.2,9.8,24.6,9.8s19.3-3.1,24.5-9.4c5.2-6.3,7.8-16.4,7.8-30.2v-120h48.3v122.7c0,23.7-6.8,41.9-20.3,54.6-13.6,12.7-33.6,19-60.2,19M1103.7,571c-8.4,3.4-19.4,6.8-32.9,10.1-13.4,3.3-26.7,4.9-39.8,4.9-30.2,0-54.3-8.7-72.2-26.1-17.9-17.5-26.9-42.2-26.9-74.2s9-54.3,26.9-72.5c17.9-18.2,42.5-27.2,73.6-27.2s29.2,1.5,39.3,4.6c10.1,3,20.5,7.2,31.2,12.5v45h-4.4c-2.3-1.8-5.6-4.4-10-7.7-4.3-3.3-8.5-6.2-12.7-8.5-4.8-2.8-10.4-5.2-16.8-7.1-6.3-2-13-3-20.1-3s-15.8,1.3-22.6,3.9c-6.8,2.6-12.9,6.5-18.2,11.9-5.1,5.2-9.1,11.7-12.1,19.7-2.9,7.9-4.4,17.1-4.4,27.6,0,22.5,5.6,39.1,16.9,49.7,11.3,10.7,26.7,16,46.2,16s3.7,0,6-.1c2.3,0,4.4-.2,6.1-.4v-37.7h-37.3v-36h84.1v94.6h0ZM771.1,581.9v-192.3h130v36.7h-82v33.7h75.5v36.7h-75.5v48.5h82v36.7h-130ZM653.7,585.4c-14.7,0-27.6-1.4-38.8-4.3-11.2-2.8-21.5-6.3-31.1-10.6v-45.7h4.4c9.6,8.2,20.3,14.5,31.9,18.9,11.6,4.4,22.9,6.6,33.8,6.6s6.4-.3,10.9-.9c4.5-.6,8.1-1.6,10.9-2.9,3.4-1.4,6.2-3.5,8.6-6.1,2.3-2.6,3.5-6.1,3.5-10.4s-1.9-8.7-5.7-11.7c-3.8-3-8.3-5.2-13.6-6.6-6.5-1.7-13.5-3.3-21-4.9-7.4-1.5-14.4-3.4-20.8-5.7-14.9-5.2-25.6-12.3-32-21.2-6.5-8.9-9.7-20-9.7-33.3s7.6-32.6,22.9-43.7c15.2-11.2,34.2-16.7,57.1-16.7s22.8,1.2,34.2,3.5c11.3,2.3,21.5,5.5,30.4,9.4v43.9h-4.3c-7.1-6.1-15.9-11.3-26.1-15.5-10.3-4.2-20.9-6.3-31.7-6.3s-8,.3-11.4.9c-3.4.6-6.9,1.8-10.6,3.5-3,1.4-5.6,3.4-7.8,6.1-2.2,2.7-3.3,5.7-3.3,9.1,0,4.9,1.8,8.8,5.2,11.7,3.5,2.9,10.2,5.5,20.2,7.8,6.5,1.5,12.7,2.9,18.7,4.3,6,1.4,12.4,3.3,19.2,5.7,13.4,4.8,23.3,11.3,29.8,19.4,6.5,8.1,9.7,18.9,9.7,32.2,0,19.1-7.5,34.5-22.5,46.1-15,11.6-35.3,17.4-60.9,17.4"/>
    </g>
  </g>
</svg>