<?xml version="1.0" encoding="UTF-8"?>
<svg id="Capa_1" data-name="Capa 1" xmlns="http://www.w3.org/2000/svg" viewBox="0 0 300 100">
  <defs>
    <style>
      .cls-1, .cls-2, .cls-3 {
        stroke-width: 0px;
      }

      .cls-2 {
        fill: #686867;
      }

      .cls-3 {
        fill: #ff0027;
      }
    </style>
  </defs>
  <path class="cls-3" d="M15.21,26.97h16.7v16.74H15.21v-16.74Z"/>
  <path class="cls-3" d="M62.57,43.74h-16.73v-16.73h16.73v16.73Z"/>
  <path class="cls-3" d="M15.16,57.63h16.74v16.74H15.16v-16.74Z"/>
  <path class="cls-3" d="M62.6,57.69v16.7h-16.75v-16.7h16.75Z"/>
  <path class="cls-1" d="M90.54,31.76c.15-.04.28-.1.42-.11q3.03-.19,4.01,2.71c1.13,3.35,2.26,6.69,3.51,10.39,1.31-3.67,2.49-7,3.67-10.32.18-.5.42-.99.53-1.51.21-1.06.81-1.31,1.84-1.33,1.06-.02,1.41.43,1.71,1.32,1.26,3.82,2.59,7.61,4.02,11.78.37-.92.63-1.51.85-2.12,1.05-3.03,2.16-6.03,3.08-9.1.44-1.46,1.11-2.13,2.64-1.85.42.08.86.01,1.52.01-.17.6-.27,1.05-.43,1.49-1.87,5.26-3.78,10.5-5.58,15.79-.41,1.21-1.12,1.27-2.16,1.33-1.13.07-1.5-.45-1.82-1.39-1.25-3.67-2.55-7.32-3.97-11.37-.93,2.59-1.73,4.82-2.53,7.05-.57,1.6-1.08,3.23-1.75,4.78-.18.41-.88.81-1.36.83-.72.03-1.69.52-2.11-.66-2.03-5.77-4.08-11.53-6.12-17.3-.04-.12.02-.28.04-.43Z"/>
  <path class="cls-1" d="M87.66,31.41c-1.78-.42-3.4-.98-5.06-1.14-1.26-.12-2.61.1-3.84.45-1.24.36-1.99,1.37-2.01,2.75-.03,1.38.82,2.16,2.02,2.53,1.99.61,4.02,1.12,6.02,1.68.65.18,1.31.37,1.94.62,2.22.91,3.81,2.32,3.87,4.93.06,2.66-1.06,4.73-3.46,5.75-4.55,1.92-9.1,1.63-13.49-.63-.34-.18-.65-.72-.69-1.12-.1-.95-.03-1.93-.03-3.13.61.36,1.05.62,1.48.89,2.71,1.72,5.67,2.21,8.8,1.73.66-.1,1.49-.23,1.88-.66.63-.7,1.31-1.66,1.3-2.51,0-.68-.87-1.65-1.58-1.96-1.41-.62-2.98-.84-4.47-1.27-1.4-.41-2.83-.75-4.15-1.34-4.18-1.87-4.77-7.1-1.23-10.03,3.15-2.6,8.56-2.51,12.07-.97.28.12.57.54.6.85.08.86.03,1.73.03,2.58Z"/>
  <path class="cls-1" d="M179.03,43.2c1.75-3.31,3.4-6.42,5.04-9.54q1.19-2.26,3.88-1.88v18.34h-3.13v-10.8c-.12-.03-.24-.06-.36-.08-1.16,2.16-2.32,4.32-3.46,6.49-.44.83-.79,1.52-2.01,1.5-1.15-.02-1.6-.56-2.05-1.43-1.14-2.18-2.35-4.32-3.79-6.42v10.74h-3.14v-18.27c2.36-.58,2.65-.45,3.73,1.59,1.48,2.79,2.95,5.58,4.44,8.36.22.41.48.8.85,1.41Z"/>
  <path class="cls-1" d="M207.36,31.89c3.29,0,6.52-.33,9.65.08,4.55.59,7.24,4.63,6.86,9.5-.42,5.3-3.15,8.17-8.45,8.58-2.64.2-5.31.03-8.06.03v-18.19ZM211.01,47.03c2.97-.08,6.21.8,8.14-2.26,1.55-2.46,1.55-5.3.02-7.77-1.92-3.09-5.17-2.15-8.15-2.29v12.32Z"/>
  <path class="cls-1" d="M204.24,47.21v2.88h-12.52v-18.36h12.46v2.85h-8.86v4.61h8.32v2.97h-8.31v5.05h8.9Z"/>
  <path class="cls-1" d="M269.28,50.19c-1.11,0-2.08.08-3.02-.04-.36-.05-.87-.52-.94-.88-.62-3.12-2.61-3.87-5.48-3.43-1.19.18-2.43.09-3.64.01-.83-.05-1.28.26-1.49,1.02-.05.19-.14.36-.22.54q-1.33,3.02-4.84,2.68c.15-.42.26-.83.43-1.2,2.44-5.35,4.91-10.68,7.31-16.05.42-.95.95-1.28,1.97-1.23.96.05,1.66.06,2.15,1.17,2.39,5.42,4.91,10.79,7.37,16.18.15.34.24.7.42,1.24ZM262.54,42.97c-1.05-2.4-2.01-4.62-3.09-7.09-1.08,2.5-2.03,4.69-3.04,7.02.62.03,1.04.06,1.46.06,1.48,0,2.97,0,4.66,0Z"/>
  <path class="cls-1" d="M140.64,35.32c-1.97-.32-3.77-.69-5.58-.85-.71-.06-1.55.25-2.18.64-1.46.91-1.32,2.74.25,3.46.88.4,1.84.59,2.77.88,1.29.41,2.62.73,3.87,1.25,1.68.7,2.77,1.91,2.82,3.87.06,2.09-.7,3.78-2.58,4.7-3.56,1.73-7.16,1.4-10.68-.22-.27-.12-.53-.56-.56-.88-.08-.86-.03-1.72-.03-2.28,2.24.49,4.42.98,6.61,1.45.23.05.49.01.73-.01,1.61-.14,2.76-.92,2.86-2.02.14-1.68-1.24-1.92-2.36-2.28-1.66-.54-3.38-.89-5.03-1.45-1.95-.67-3.23-2.01-3.32-4.16-.09-2.12.81-3.81,2.66-4.85,2.97-1.68,6.06-1.43,9.13-.27.29.11.54.63.59.99.09.72.03,1.45.03,2.03Z"/>
  <path class="cls-1" d="M145.98,45.89c2.29.5,4.52.99,6.76,1.45.32.07.69.02,1.01-.06,1.18-.26,2.34-.63,2.45-2.09.11-1.42-1.04-1.74-2.06-2.05-1.62-.5-3.29-.84-4.9-1.39-2.05-.69-3.62-1.88-3.7-4.33-.08-2.42,1.04-4.27,3.38-5.27,2.74-1.17,5.51-.96,8.23.08.35.13.65.74.73,1.17.12.66.03,1.35.03,2.16-1.07-.33-2.05-.81-3.05-.88-1.42-.11-2.91-.12-4.27.23-.6.15-1.3,1.25-1.33,1.94-.03.58.73,1.44,1.35,1.76,1.02.52,2.21.7,3.32,1.03.84.25,1.69.45,2.51.77,2.38.92,3.52,2.43,3.47,4.51-.05,2.23-1.3,3.98-3.62,4.79-3.22,1.13-6.41.83-9.49-.56-.38-.17-.73-.74-.79-1.17-.13-.79-.04-1.62-.04-2.09Z"/>
  <path class="cls-1" d="M247.45,46.16c.06.1.1.14.1.18.16,3.32.5,3.02-2.68,3.76-4.17.97-8.05-.4-10.01-3.35-2.19-3.29-2.14-8.66.11-11.88,2.34-3.35,8.7-4.67,12.13-2.51.24.15.46.5.48.78.06.81.02,1.62.02,2.53-3.37-.99-6.73-2.62-9.46.85-1.56,1.99-1.61,6.52-.08,8.6,2.69,3.65,6.12,1.96,9.37,1.03Z"/>
  <path class="cls-1" d="M271.84,27.74h3.49v19.25h9.67v3.09h-13.16v-22.34Z"/>
  <path class="cls-1" d="M124.65,50.12h-3.52v-18.37h3.52v18.37Z"/>
  <path class="cls-1" d="M230.31,50.19h-3.46v-18.48h3.46v18.48Z"/>
  <g>
    <path class="cls-2" d="M178.96,55.82c34.56,0,69.12,0,103.68,0q2.27,0,2.28,2.29c0,4.96-.03,9.93.02,14.89,0,1.06-.27,1.57-1.39,1.43-.38-.05-.78,0-1.17,0-68.92,0-137.85,0-206.77,0-.49,0-.98-.03-1.46,0-.81.06-1.11-.28-1.11-1.1.02-5.45.02-10.9,0-16.35,0-.79.25-1.19,1.08-1.15.49.02.97,0,1.46,0,34.46,0,68.92,0,103.39,0ZM212.99,66.08c1.92-1.43,2.54-2.92,1.95-4.76-.51-1.58-1.99-2.39-4.39-2.4-1.46,0-2.92.02-4.37,0-.74-.02-1.04.26-1.03,1.02.02,3.35.04,6.71-.01,10.06-.02,1.11.6,1.11,1.39,1.11.85,0,1.56,0,1.49-1.19-.07-1.1-.02-2.21-.02-3.29,1.38-.42,2.24-.06,2.81,1.07.33.65.69,1.28,1.04,1.92.92,1.66,1.74,1.92,3.78,1.09-.87-1.52-1.72-3.02-2.63-4.62ZM235.81,65.02c0,3.84,2.34,6.32,5.91,6.28,3.6-.04,5.99-2.54,5.99-6.29,0-3.73-2.44-6.28-6-6.28-3.62,0-5.9,2.43-5.89,6.29ZM152.07,61.88c.97-1.36,1-1.68.1-2.25-1.98-1.25-5.41-1.15-7.35.22-1.92,1.35-2.89,4.13-2.3,6.64.64,2.78,2.18,4.3,5.06,4.66,1.27.16,2.6-.03,3.89-.19,1.33-.16,2.09-.82,1.9-2.34-.14-1.1.04-2.24-.08-3.35-.04-.38-.53-.97-.87-1-1.1-.13-2.24-.1-3.35,0-.3.03-.72.47-.79.79-.23,1.01.31,1.35,1.3,1.39.34.01.92.56.92.87,0,.51-.24,1.35-.6,1.48-1.69.62-3.48-.11-4.13-1.5-.81-1.72-.4-4.72.84-5.54.5-.33,1.18-.59,1.75-.54,1.23.1,2.43.43,3.71.67ZM184.34,63.62c0-1.02-.01-2.04,0-3.06.01-.9.13-1.68-1.28-1.68-1.41,0-1.6.62-1.56,1.77.06,1.85.03,3.7,0,5.54-.03,1.9-.78,2.71-2.46,2.69-1.57-.02-2.3-.85-2.32-2.68-.02-2.04-.05-4.09.01-6.13.04-1.21-.7-1.14-1.52-1.16-.83-.02-1.4.06-1.36,1.14.07,1.85.02,3.69.02,5.54,0,4.36,2.48,6.37,6.78,5.5,2.24-.45,3.61-2.1,3.66-4.42.02-1.02,0-2.04,0-3.06ZM116.52,71.09c1.07,0,2.14-.03,3.2.01.84.03,1.12-.37,1.12-1.13,0-.76-.24-1.19-1.09-1.14-.92.05-1.84.02-2.77,0-.91-.02-1.91.34-1.93-1.32-.02-1.74,1.03-1.39,2-1.4.78-.01,1.55-.03,2.33,0,.8.03,1.15-.31,1.17-1.11.02-.81-.23-1.32-1.14-1.31-1.07.01-2.14-.04-3.2,0-.94.04-1.13-.44-1.12-1.26.01-.78.09-1.32,1.09-1.26,1.21.06,2.44.09,3.64-.04.37-.04.86-.61.97-1.02.18-.68-.11-1.21-1-1.19-2.18.03-4.37-.03-6.55.05-.33.01-.91.58-.92.91-.07,3.4-.07,6.8,0,10.2,0,.35.61.93,1,.97,1.05.14,2.13.05,3.2.05ZM89.11,61.93c.16-.67,1.3-1.31.16-2.17-1.92-1.45-5.72-1.31-7.52.27-1.94,1.7-1.62,4.42.73,5.49,1.04.48,2.25.59,3.32,1.03.6.25,1.06.83,1.58,1.26-.62.36-1.25,1.02-1.85,1-1.45-.05-2.9-.42-4.43-.67-.13.68-1.4,1.48.05,2.19,2.33,1.14,4.74,1.39,7.15.27,1.3-.6,1.98-1.72,1.94-3.16-.04-1.35-.78-2.29-2.02-2.77-1.08-.42-2.25-.61-3.31-1.08-.55-.25-.94-.88-1.4-1.34.59-.37,1.19-1.05,1.78-1.04,1.22.03,2.42.43,3.81.72ZM268.86,68.2c-.12.55-1.3,1.17-.17,2.03,1.75,1.32,5.8,1.4,7.66.2,1.12-.72,1.66-1.77,1.6-3.08-.05-1.29-.76-2.21-1.94-2.66-1.08-.42-2.25-.62-3.3-1.09-.61-.27-1.06-.9-1.58-1.36.66-.37,1.33-1.04,1.99-1.03,1.21.02,2.41.44,3.72.72.25-.71,1.41-1.54-.06-2.29-2.14-1.1-4.36-1.3-6.55-.14-1.36.72-2.08,1.89-1.95,3.46.12,1.49,1.11,2.33,2.43,2.79,1,.35,2.08.49,3.06.9.49.2.83.77,1.23,1.17-.51.35-1.03,1-1.52.98-1.47-.05-2.92-.37-4.6-.61Z"/>
    <path class="cls-2" d="M209.83,64.18c-1.95,0-2.08-.1-1.83-2.04.05-.35.53-.83.9-.92.59-.15,1.25-.07,1.88-.02.93.08,1.62.56,1.58,1.54-.04.94-.65,1.47-1.65,1.45-.29,0-.58,0-.87,0Z"/>
    <path class="cls-2" d="M238.65,64.94c.01-2.65,1.2-3.96,3.46-3.79,1.58.12,2.5,1.12,2.65,3.43.16,2.47-.69,4.59-3.52,4.29-1.66-.18-2.6-1.57-2.59-3.93Z"/>
  </g>
</svg>